<svg width="22" height="22" viewBox="0 0 22 22" fill="none" xmlns="http://www.w3.org/2000/svg">
<path d="M7.14756 9.90427C7.29334 9.90447 7.43328 9.84648 7.53637 9.74339C7.63946 9.6403 7.69745 9.50035 7.69725 9.35457C7.69725 9.05093 7.94351 8.80467 8.24715 8.80467C8.55079 8.80467 8.79705 9.05093 8.79705 9.35457C8.79705 9.65822 9.04311 9.90427 9.34675 9.90427C9.65059 9.90427 9.89665 9.65822 9.89665 9.35457C9.89665 8.44344 9.15808 7.70508 8.24715 7.70508C7.33622 7.70508 6.59766 8.44344 6.59766 9.35457C6.59766 9.50035 6.65544 9.6403 6.75854 9.74339C6.86183 9.84648 7.00157 9.90447 7.14756 9.90427Z" fill="#3F67FD"/>
<path d="M14.5994 13.5363C12.546 14.5628 9.44737 14.5628 7.39356 13.5363C7.12193 13.4003 6.79171 13.5105 6.6558 13.7821C6.52008 14.0537 6.63002 14.3842 6.90165 14.5199C8.18146 15.1235 9.58168 15.4276 10.9964 15.4091C12.4111 15.4276 13.8115 15.1233 15.0911 14.5199C15.3628 14.3842 15.4729 14.0537 15.3372 13.7821C15.2013 13.5105 14.8711 13.4003 14.5994 13.5363Z" fill="#3F67FD"/>
<path d="M20.3438 8.80422H19.7939V7.15473C19.7925 5.63712 18.5625 4.40704 17.0449 4.40563H15.3954V3.20456C16.1527 2.93696 16.6071 2.16235 16.4712 1.37062C16.3353 0.578693 15.6489 0 14.8455 0C14.0421 0 13.3556 0.578693 13.2197 1.37062C13.0838 2.16235 13.5383 2.93696 14.2956 3.20456V4.40563H7.69758V3.20456C8.45507 2.93696 8.90933 2.16235 8.77361 1.37062C8.6377 0.578693 7.95128 0 7.14788 0C6.34448 0 5.65786 0.578693 5.52214 1.37062C5.38623 2.16235 5.84049 2.93696 6.59798 3.20456V4.40563H4.94849C3.43088 4.40725 2.201 5.63712 2.19939 7.15473V8.80422H1.6495C0.738971 8.80523 0.00100676 9.54319 0 10.4537V12.6531C0.00100676 13.5636 0.738971 14.3016 1.6495 14.3026H2.19939V16.5018C2.201 18.0196 3.43088 19.2495 4.94849 19.2511H7.69758V21.4503C7.69778 21.6502 7.80631 21.8343 7.98108 21.9311C8.15586 22.028 8.3695 22.0223 8.53884 21.9164L12.8039 19.2511H17.0449C18.5625 19.2497 19.7925 18.0196 19.7939 16.5018V14.3026H20.3438C21.2544 14.3016 21.9923 13.5636 21.9933 12.6531V10.4537C21.9923 9.54319 21.2544 8.80523 20.3438 8.80422ZM14.8455 1.10664C15.1491 1.10664 15.3954 1.3527 15.3954 1.65634C15.3954 1.96019 15.1491 2.20624 14.8455 2.20624C14.5418 2.20624 14.2956 1.96019 14.2956 1.65634C14.2962 1.3531 14.542 1.10725 14.8455 1.10664ZM7.14788 1.10664C7.45152 1.10664 7.69758 1.3527 7.69758 1.65634C7.69758 1.96019 7.45152 2.20624 7.14788 2.20624C6.84424 2.20624 6.59798 1.96019 6.59798 1.65634C6.59838 1.3529 6.84424 1.10705 7.14788 1.10664ZM1.6495 13.2028C1.34605 13.2026 1.1 12.9566 1.0996 12.6531V10.4537C1.1 10.1503 1.34605 9.90422 1.6495 9.90382H2.19939V13.2028H1.6495ZM18.6943 16.5018C18.6933 17.4125 17.9554 18.1505 17.0449 18.1513H12.6461C12.5432 18.1513 12.4423 18.1803 12.3551 18.2351L8.79737 20.458V18.7012C8.79737 18.5554 8.73959 18.4155 8.63629 18.3124C8.5332 18.2093 8.39326 18.1513 8.24748 18.1513H4.94849C4.03796 18.1505 3.3 17.4125 3.29899 16.5018V7.15473C3.3 6.2442 4.03796 5.50624 4.94849 5.50523H17.0449C17.9554 5.50624 18.6933 6.2442 18.6943 7.15473V16.5018ZM20.8935 12.6531C20.8931 12.9566 20.6473 13.2024 20.3438 13.2028H19.7939V9.90382H20.3438C20.6473 9.90442 20.8931 10.1503 20.8935 10.4537V12.6531Z" fill="#3F67FD"/>
<path d="M13.7452 7.70508C12.8347 7.70608 12.0967 8.44405 12.0957 9.35457C12.0957 9.65822 12.3418 9.90427 12.6454 9.90427C12.9492 9.90427 13.1953 9.65822 13.1953 9.35457C13.1953 9.05093 13.4416 8.80467 13.7452 8.80467C14.0488 8.80467 14.2949 9.05093 14.2949 9.35457C14.2949 9.65822 14.5412 9.90427 14.8448 9.90427C15.1484 9.90427 15.3947 9.65822 15.3947 9.35457C15.3937 8.44405 14.6557 7.70608 13.7452 7.70508Z" fill="#3F67FD"/>
</svg>
