<svg width="19" height="22" viewBox="0 0 19 22" fill="none" xmlns="http://www.w3.org/2000/svg">
<path d="M9.46177 12.5509C10.8797 12.5509 12.1903 12.1513 13.2387 11.4724C14.0508 10.9525 15.1079 11.0384 15.8211 11.6872C17.802 13.4833 18.9278 16.0314 18.9235 18.7083V19.8556C18.9235 21.0415 17.961 21.9997 16.7751 21.9997H2.14849C0.962549 21.9997 4.88433e-05 21.0415 4.88433e-05 19.8556V18.7083C-0.00854491 16.0357 1.11724 13.4833 3.0981 11.6915C3.81138 11.0427 4.87271 10.9568 5.68052 11.4767C6.73325 12.1513 8.0395 12.5509 9.46177 12.5509Z" fill="#3F67FD"/>
<path d="M9.46211 10.6391C12.4 10.6391 14.7816 8.25743 14.7816 5.31953C14.7816 2.38164 12.4 0 9.46211 0C6.52421 0 4.14258 2.38164 4.14258 5.31953C4.14258 8.25743 6.52421 10.6391 9.46211 10.6391Z" fill="#3F67FD"/>
</svg>
