<svg width="15" height="20" viewBox="0 0 15 20" fill="none" xmlns="http://www.w3.org/2000/svg">
<path fill-rule="evenodd" clip-rule="evenodd" d="M8.23788 13.8597H6.21063C5.95283 13.8597 5.74191 13.6487 5.74191 13.3909V12.5355H4.87476C4.61696 12.5355 4.40603 12.3246 4.40603 12.0668V10.0395C4.40603 9.78175 4.61696 9.57082 4.87476 9.57082H5.74191V8.71539C5.74191 8.45759 5.95283 8.24667 6.21063 8.24667H8.23788C8.49568 8.24667 8.70661 8.45759 8.70661 8.71539V9.57082H9.56203C9.81983 9.57082 10.0308 9.78175 10.0308 10.0395V12.0668C10.0308 12.3246 9.81983 12.5355 9.56203 12.5355H8.70661V13.3909C8.70661 13.6487 8.49568 13.8597 8.23788 13.8597ZM7.2184 20C3.21078 20 0 16.7775 0 12.7699C0 10.8247 2.36707 7.21547 4.46463 4.01641C5.42552 2.55163 6.33953 1.16889 6.80826 0.25487C6.97232 -0.0849568 7.46448 -0.0849568 7.64025 0.25487C8.10898 1.16889 9.01128 2.55163 9.97217 4.01641C12.0697 7.21547 14.4485 10.8247 14.4485 12.7699C14.4485 16.7775 11.2377 20 7.2184 20ZM7.2184 1.43841C5.48411 4.41482 0.937454 10.4731 0.937454 12.7699C0.937454 16.2385 3.74982 19.0625 7.2184 19.0625C10.687 19.0625 13.5111 16.2385 13.5111 12.7699C13.5111 10.4848 8.96441 4.42654 7.2184 1.43841ZM7.2184 17.8439C6.60905 17.8439 6.60905 16.9064 7.2184 16.9064C9.50344 16.9064 11.3666 15.0549 11.3666 12.7699C11.3666 12.1605 12.3041 12.1605 12.3041 12.7699C12.3041 15.5705 10.019 17.8439 7.2184 17.8439ZM6.67936 12.9222H7.76915V12.0668C7.76915 11.809 7.98008 11.5981 8.23788 11.5981H9.09331V10.5083H8.23788C7.98008 10.5083 7.76915 10.2973 7.76915 10.0395V9.18412H6.67936V10.0395C6.67936 10.2973 6.46843 10.5083 6.21063 10.5083H5.34349V11.5981H6.21063C6.46843 11.5981 6.67936 11.809 6.67936 12.0668V12.9222Z" fill="#3F67FD"/>
</svg>
