<svg width="18" height="18" viewBox="0 0 18 18" fill="none" xmlns="http://www.w3.org/2000/svg">
<path d="M15.8093 2.1268H15.0444V1.12751C15.0413 0.830509 14.9211 0.546723 14.71 0.337799C14.4989 0.128875 14.2139 0.0116875 13.9168 0.0116921C13.6198 0.0116968 13.3348 0.128893 13.1237 0.337824C12.9126 0.546755 12.7924 0.830544 12.7893 1.12755V2.1268H9.91344V1.12751C9.91344 0.828476 9.79465 0.541689 9.5832 0.33024C9.37175 0.118791 9.08496 0 8.78593 0C8.48689 0 8.20011 0.118791 7.98866 0.33024C7.77721 0.541689 7.65842 0.828476 7.65842 1.12751V2.1268H4.78253V1.12751C4.78253 0.828476 4.66373 0.541689 4.45228 0.33024C4.24084 0.118791 3.95405 0 3.65501 0C3.35598 0 3.06919 0.118791 2.85774 0.33024C2.64629 0.541689 2.5275 0.828476 2.5275 1.12751V2.1268H1.70979C1.25483 2.12901 0.819325 2.31158 0.498797 2.63446C0.178268 2.95735 -0.00111094 3.39418 5.17743e-06 3.84914V16.2777C-0.00111094 16.7326 0.178268 17.1694 0.498797 17.4923C0.819325 17.8152 1.25483 17.9978 1.70979 18H15.8093C16.2643 17.9978 16.6998 17.8152 17.0203 17.4923C17.3409 17.1695 17.5202 16.7326 17.5191 16.2777V3.84914C17.5202 3.39417 17.3409 2.95734 17.0203 2.63446C16.6998 2.31157 16.2643 2.12901 15.8093 2.1268ZM13.4322 1.12751C13.4342 1.0003 13.4862 0.878994 13.5768 0.789754C13.6675 0.700513 13.7896 0.650498 13.9169 0.650501C14.0441 0.650504 14.1662 0.700525 14.2569 0.789769C14.3475 0.879014 14.3995 1.00033 14.4015 1.12753V2.1268H13.4322V1.12751ZM8.30127 1.12751C8.3033 1.0003 8.35525 0.878994 8.44592 0.789754C8.53659 0.700513 8.65872 0.650498 8.78594 0.650501C8.91316 0.650504 9.03528 0.700525 9.12595 0.789769C9.21662 0.879014 9.26856 1.00033 9.27058 1.12753V2.1268H8.30127V1.12751ZM3.17035 1.12751C3.17237 1.0003 3.22432 0.878994 3.31499 0.789754C3.40566 0.700513 3.52779 0.650498 3.65501 0.650501C3.78223 0.650504 3.90435 0.700525 3.99502 0.789769C4.08569 0.879014 4.13763 1.00033 4.13965 1.12753V2.1268H3.17035V1.12751ZM1.70977 2.76965H2.52749V3.39148C2.52874 3.57086 2.57255 3.74738 2.65532 3.90652C2.73809 4.06567 2.85745 4.20289 3.00359 4.30691C3.14974 4.41093 3.31848 4.47878 3.49596 4.50487C3.67343 4.53096 3.85457 4.51455 4.02446 4.45698C4.1036 4.42801 4.16819 4.36912 4.20433 4.29299C4.24047 4.21687 4.24526 4.12959 4.21769 4.04996C4.19011 3.97033 4.13237 3.90472 4.05689 3.86725C3.98141 3.82977 3.89423 3.82344 3.81413 3.84961C3.74107 3.87433 3.66319 3.88136 3.58689 3.87012C3.51059 3.85889 3.43804 3.82972 3.3752 3.785C3.31237 3.74028 3.26104 3.6813 3.22542 3.61289C3.18981 3.54448 3.17094 3.4686 3.17035 3.39147V2.76965H7.65842V3.39148C7.65874 3.69041 7.77764 3.97701 7.98901 4.18839C8.20039 4.39977 8.48699 4.51866 8.78592 4.51899C9.06272 4.53276 9.46812 4.39618 9.35406 4.04797C9.34024 4.00808 9.31869 3.97131 9.29066 3.93975C9.26262 3.9082 9.22864 3.88247 9.19066 3.86405C9.15268 3.84563 9.11144 3.83487 9.0693 3.8324C9.02716 3.82992 8.98494 3.83577 8.94506 3.84961C8.87201 3.87434 8.79412 3.88139 8.71781 3.87016C8.6415 3.85894 8.56894 3.82977 8.5061 3.78505C8.44326 3.74033 8.39192 3.68133 8.35631 3.61292C8.32071 3.54449 8.30184 3.4686 8.30127 3.39147V2.76965H12.7893V3.39148C12.7906 3.57086 12.8344 3.74739 12.9172 3.90654C12.9999 4.06569 13.1193 4.20292 13.2654 4.30694C13.4116 4.41097 13.5803 4.47881 13.7578 4.50489C13.9353 4.53098 14.1164 4.51456 14.2863 4.45698C14.3654 4.42801 14.43 4.36911 14.4662 4.29299C14.5023 4.21687 14.5071 4.1296 14.4795 4.04997C14.4519 3.97035 14.3942 3.90473 14.3187 3.86726C14.2432 3.82979 14.1561 3.82345 14.076 3.84962C14.0029 3.87437 13.925 3.88142 13.8487 3.8702C13.7724 3.85898 13.6998 3.82981 13.637 3.78509C13.5741 3.74036 13.5228 3.68136 13.4872 3.61293C13.4516 3.54451 13.4328 3.46861 13.4322 3.39147V2.76965H15.8093C16.0939 2.77165 16.366 2.88642 16.566 3.08879C16.766 3.29116 16.8776 3.5646 16.8763 3.84914V5.46745C16.8289 5.43801 16.7745 5.42179 16.7187 5.4205L0.642862 5.43729V3.84914C0.641528 3.56461 0.753108 3.29116 0.953125 3.08879C1.15314 2.88642 1.42525 2.77165 1.70977 2.76965ZM15.8093 17.3571H1.70979C1.42526 17.3551 1.15314 17.2404 0.953125 17.038C0.753108 16.8356 0.641528 16.5622 0.642862 16.2777V6.08014L16.7193 6.06337C16.7749 6.06198 16.829 6.0458 16.8763 6.0165V16.2777C16.8776 16.5622 16.766 16.8356 16.566 17.038C16.366 17.2404 16.0939 17.3552 15.8093 17.3571Z" fill="#888888"/>
<path d="M4.92268 7.55469H2.84877C2.80656 7.55468 2.76476 7.56298 2.72575 7.57913C2.68675 7.59528 2.65131 7.61896 2.62146 7.64881C2.59161 7.67866 2.56794 7.71409 2.55179 7.7531C2.53564 7.7921 2.52733 7.8339 2.52734 7.87612V9.74944C2.52733 9.79165 2.53564 9.83346 2.55179 9.87246C2.56794 9.91146 2.59161 9.9469 2.62146 9.97675C2.65131 10.0066 2.68675 10.0303 2.72575 10.0464C2.76476 10.0626 2.80656 10.0709 2.84877 10.0709H4.92268C4.96489 10.0709 5.00669 10.0626 5.0457 10.0464C5.0847 10.0303 5.12014 10.0066 5.14999 9.97675C5.17984 9.9469 5.20351 9.91146 5.21966 9.87246C5.23581 9.83346 5.24412 9.79165 5.24411 9.74944V7.87612C5.24412 7.8339 5.23581 7.7921 5.21966 7.7531C5.20351 7.71409 5.17984 7.67866 5.14999 7.64881C5.12014 7.61896 5.0847 7.59528 5.0457 7.57913C5.00669 7.56298 4.96489 7.55468 4.92268 7.55469ZM4.60125 9.42802H3.1702V8.19754H4.60125V9.42802Z" fill="#888888"/>
<path d="M9.4842 7.55469H7.4103C7.36808 7.55468 7.32628 7.56298 7.28728 7.57913C7.24828 7.59528 7.21284 7.61896 7.18299 7.64881C7.15314 7.67866 7.12946 7.71409 7.11331 7.7531C7.09716 7.7921 7.08886 7.8339 7.08887 7.87612V9.74944C7.08886 9.79165 7.09716 9.83346 7.11331 9.87246C7.12946 9.91146 7.15314 9.9469 7.18299 9.97675C7.21284 10.0066 7.24828 10.0303 7.28728 10.0464C7.32628 10.0626 7.36808 10.0709 7.4103 10.0709H9.4842C9.52641 10.0709 9.56822 10.0626 9.60722 10.0464C9.64622 10.0303 9.68166 10.0066 9.71151 9.97675C9.74136 9.9469 9.76504 9.91146 9.78119 9.87246C9.79733 9.83346 9.80564 9.79165 9.80563 9.74944V7.87612C9.80564 7.8339 9.79733 7.7921 9.78119 7.7531C9.76504 7.71409 9.74136 7.67866 9.71151 7.64881C9.68166 7.61896 9.64622 7.59528 9.60722 7.57913C9.56822 7.56298 9.52641 7.55468 9.4842 7.55469ZM9.16277 9.42802H7.73172V8.19754H9.16277V9.42802Z" fill="#888888"/>
<path d="M14.0451 7.55469H11.9708C11.9286 7.55468 11.8868 7.56298 11.8478 7.57913C11.8088 7.59528 11.7734 7.61896 11.7435 7.64881C11.7137 7.67866 11.69 7.71409 11.6739 7.7531C11.6577 7.7921 11.6494 7.8339 11.6494 7.87612V9.74944C11.6494 9.79165 11.6577 9.83346 11.6739 9.87246C11.69 9.91146 11.7137 9.9469 11.7435 9.97675C11.7734 10.0066 11.8088 10.0303 11.8478 10.0464C11.8868 10.0626 11.9286 10.0709 11.9708 10.0709H14.0451C14.0873 10.0709 14.1291 10.0626 14.1681 10.0464C14.2071 10.0303 14.2425 10.0066 14.2724 9.97675C14.3022 9.9469 14.3259 9.91146 14.342 9.87246C14.3582 9.83346 14.3665 9.79165 14.3665 9.74944V7.87612C14.3665 7.8339 14.3582 7.7921 14.342 7.7531C14.3259 7.71409 14.3022 7.67866 14.2724 7.64881C14.2425 7.61896 14.2071 7.59528 14.1681 7.57913C14.1291 7.56298 14.0873 7.55468 14.0451 7.55469ZM13.7236 9.42802H12.2923V8.19754H13.7236V9.42802Z" fill="#888888"/>
<path d="M4.92268 12.1162H2.84877C2.80656 12.1162 2.76476 12.1245 2.72575 12.1407C2.68675 12.1568 2.65131 12.1805 2.62146 12.2103C2.59161 12.2402 2.56794 12.2756 2.55179 12.3146C2.53564 12.3536 2.52733 12.3954 2.52734 12.4376V14.311C2.52733 14.3532 2.53564 14.395 2.55179 14.434C2.56794 14.473 2.59161 14.5084 2.62146 14.5383C2.65131 14.5681 2.68675 14.5918 2.72575 14.6079C2.76476 14.6241 2.80656 14.6324 2.84877 14.6324H4.92268C4.96489 14.6324 5.00669 14.6241 5.0457 14.6079C5.0847 14.5918 5.12014 14.5681 5.14999 14.5383C5.17984 14.5084 5.20351 14.473 5.21966 14.434C5.23581 14.395 5.24412 14.3532 5.24411 14.311V12.4376C5.24412 12.3954 5.23581 12.3536 5.21966 12.3146C5.20351 12.2756 5.17984 12.2402 5.14999 12.2103C5.12014 12.1805 5.0847 12.1568 5.0457 12.1407C5.00669 12.1245 4.96489 12.1162 4.92268 12.1162ZM4.60125 13.9895H3.1702V12.7591H4.60125V13.9895Z" fill="#888888"/>
<path d="M9.4842 12.1162H7.4103C7.36808 12.1162 7.32628 12.1245 7.28728 12.1407C7.24828 12.1568 7.21284 12.1805 7.18299 12.2103C7.15314 12.2402 7.12946 12.2756 7.11331 12.3146C7.09716 12.3536 7.08886 12.3954 7.08887 12.4376V14.311C7.08886 14.3532 7.09716 14.395 7.11331 14.434C7.12946 14.473 7.15314 14.5084 7.18299 14.5383C7.21284 14.5681 7.24828 14.5918 7.28728 14.6079C7.32628 14.6241 7.36808 14.6324 7.4103 14.6324H9.4842C9.52641 14.6324 9.56822 14.6241 9.60722 14.6079C9.64622 14.5918 9.68166 14.5681 9.71151 14.5383C9.74136 14.5084 9.76504 14.473 9.78119 14.434C9.79733 14.395 9.80564 14.3532 9.80563 14.311V12.4376C9.80564 12.3954 9.79733 12.3536 9.78119 12.3146C9.76504 12.2756 9.74136 12.2402 9.71151 12.2103C9.68166 12.1805 9.64622 12.1568 9.60722 12.1407C9.56822 12.1245 9.52641 12.1162 9.4842 12.1162ZM9.16277 13.9895H7.73172V12.7591H9.16277V13.9895Z" fill="#888888"/>
<path d="M14.0451 12.1162H11.9708C11.9286 12.1162 11.8868 12.1245 11.8478 12.1407C11.8088 12.1568 11.7734 12.1805 11.7435 12.2103C11.7137 12.2402 11.69 12.2756 11.6739 12.3146C11.6577 12.3536 11.6494 12.3954 11.6494 12.4376V14.311C11.6494 14.3532 11.6577 14.395 11.6739 14.434C11.69 14.473 11.7137 14.5084 11.7435 14.5383C11.7734 14.5681 11.8088 14.5918 11.8478 14.6079C11.8868 14.6241 11.9286 14.6324 11.9708 14.6324H14.0451C14.0873 14.6324 14.1291 14.6241 14.1681 14.6079C14.2071 14.5918 14.2425 14.5681 14.2724 14.5383C14.3022 14.5084 14.3259 14.473 14.342 14.434C14.3582 14.395 14.3665 14.3532 14.3665 14.311V12.4376C14.3665 12.3954 14.3582 12.3536 14.342 12.3146C14.3259 12.2756 14.3022 12.2402 14.2724 12.2103C14.2425 12.1805 14.2071 12.1568 14.1681 12.1407C14.1291 12.1245 14.0873 12.1162 14.0451 12.1162ZM13.7236 13.9895H12.2923V12.7591H13.7236V13.9895Z" fill="#888888"/>
</svg>
