<svg width="24" height="19" viewBox="0 0 24 19" fill="none" xmlns="http://www.w3.org/2000/svg">
<path d="M0.771912 2.84505C1.23506 2.35985 1.87464 2.07313 2.60244 2.07313H6.26351V2.02903C6.26351 1.47766 6.48406 0.948349 6.85899 0.595475C7.23392 0.220546 7.74117 0 8.29254 0H14.9089C15.4823 0 15.9896 0.220546 16.3645 0.595475C16.7395 0.970403 16.96 1.47766 16.96 2.02903V2.07313H20.599C21.3268 2.07313 21.9664 2.35985 22.4296 2.84505C22.8927 3.30819 23.2015 3.96983 23.2015 4.67558V15.6588C23.2015 16.3866 22.9148 17.0262 22.4296 17.4893C21.9664 17.9525 21.3048 18.2612 20.599 18.2612H2.60244C1.87464 18.2612 1.23506 17.9745 0.771912 17.4893C0.308765 17.0262 0 16.3645 0 15.6588V4.67558C0 3.94778 0.286711 3.30819 0.771912 2.84505ZM1.14684 15.6588H1.16889C1.16889 16.0558 1.32328 16.4086 1.58793 16.6733C1.85259 16.938 2.20546 17.0923 2.60244 17.0923H20.599C20.996 17.0923 21.3489 16.938 21.6135 16.6733C21.8782 16.4086 22.0326 16.0558 22.0326 15.6588V4.67558C22.0326 4.2786 21.8782 3.92572 21.6135 3.66107C21.3489 3.39641 20.996 3.24203 20.599 3.24203H16.3425C16.0117 3.24203 15.747 2.97737 15.747 2.64656V2.00697C15.747 1.76437 15.6588 1.54382 15.5044 1.38944C15.35 1.23506 15.1295 1.14684 14.8869 1.14684H8.29254C8.04994 1.14684 7.82939 1.23506 7.67501 1.38944C7.52063 1.54382 7.43241 1.76437 7.43241 2.00697V2.64656C7.43241 2.97737 7.16775 3.24203 6.83693 3.24203H2.58039C2.18341 3.24203 1.83053 3.39641 1.56588 3.66107C1.30122 3.92572 1.14684 4.2786 1.14684 4.67558V15.6588Z" fill="#3F67FD"/>
<path d="M11.6002 4.74121C13.1 4.74121 14.4673 5.35874 15.4378 6.32914C16.4302 7.3216 17.0257 8.66693 17.0257 10.1666C17.0257 11.6664 16.4082 13.0337 15.4378 14.0042C14.4453 14.9966 13.1 15.5921 11.6002 15.5921C10.1005 15.5921 8.73315 14.9746 7.76274 14.0042C6.77028 13.0117 6.17481 11.6664 6.17481 10.1666C6.17481 8.66693 6.79234 7.29955 7.76274 6.32914C8.73315 5.35874 10.1005 4.74121 11.6002 4.74121ZM8.60082 13.1881C9.37273 13.938 10.4314 14.4232 11.6002 14.4232C12.7691 14.4232 13.8278 13.938 14.5997 13.1881C15.3716 12.4162 15.8347 11.3576 15.8347 10.1887C15.8347 9.01981 15.3495 7.96119 14.5997 7.18927C13.8278 6.41736 12.7691 5.95422 11.6002 5.95422C10.4314 5.95422 9.37273 6.43942 8.60082 7.18927C7.82891 7.96119 7.36576 9.01981 7.36576 10.1887C7.3437 11.3576 7.82891 12.4162 8.60082 13.1881Z" fill="#3F67FD"/>
<path d="M3.7497 6.8801C3.15286 6.8801 2.66902 6.39627 2.66902 5.79943C2.66902 5.20259 3.15286 4.71875 3.7497 4.71875C4.34654 4.71875 4.83037 5.20259 4.83037 5.79943C4.83037 6.39627 4.34654 6.8801 3.7497 6.8801Z" fill="#3F67FD"/>
</svg>
