<svg width="22" height="20" viewBox="0 0 22 20" fill="none" xmlns="http://www.w3.org/2000/svg">
<path d="M5 20C4.895 20 4.78929 19.9764 4.69 19.9293C4.44357 19.81 4.28571 19.5607 4.28571 19.2857V15.7143H2.14286C0.961428 15.7143 0 14.7529 0 13.5714V2.14286C0 0.961429 0.961428 0 2.14286 0H19.2857C20.4671 0 21.4286 0.961429 21.4286 2.14286V13.5714C21.4286 14.7529 20.4671 15.7143 19.2857 15.7143H10.6079L5.44643 19.8436C5.31714 19.9471 5.15929 20 5 20ZM2.14286 1.42857C1.74857 1.42857 1.42857 1.74929 1.42857 2.14286V13.5714C1.42857 13.965 1.74857 14.2857 2.14286 14.2857H5C5.395 14.2857 5.71429 14.605 5.71429 15V17.8L9.91071 14.4421C10.0379 14.3407 10.1943 14.2857 10.3571 14.2857H19.2857C19.68 14.2857 20 13.965 20 13.5714V2.14286C20 1.74929 19.68 1.42857 19.2857 1.42857H2.14286Z" fill="white"/>
<path d="M16.428 7.14244H4.99944C4.60444 7.14244 4.28516 6.82244 4.28516 6.42815C4.28516 6.03387 4.60444 5.71387 4.99944 5.71387H16.428C16.823 5.71387 17.1423 6.03387 17.1423 6.42815C17.1423 6.82244 16.823 7.14244 16.428 7.14244Z" fill="white"/>
<path d="M10.7137 9.99986H4.99944C4.60444 9.99986 4.28516 9.67986 4.28516 9.28557C4.28516 8.89129 4.60444 8.57129 4.99944 8.57129H10.7137C11.1087 8.57129 11.428 8.89129 11.428 9.28557C11.428 9.67986 11.1087 9.99986 10.7137 9.99986Z" fill="white"/>
</svg>
