<svg width="12" height="12" viewBox="0 0 12 12" fill="none" xmlns="http://www.w3.org/2000/svg">
<path d="M4.08333 0V1.16667H7.58333V0H8.75V1.16667H11.0833C11.4055 1.16667 11.6667 1.42784 11.6667 1.75V11.0833C11.6667 11.4055 11.4055 11.6667 11.0833 11.6667H0.583333C0.26117 11.6667 0 11.4055 0 11.0833V1.75C0 1.42784 0.26117 1.16667 0.583333 1.16667H2.91667V0H4.08333ZM10.5 5.83333H1.16667V10.5H10.5V5.83333ZM3.5 7V8.16667H2.33333V7H3.5ZM6.41667 7V8.16667H5.25V7H6.41667ZM9.33333 7V8.16667H8.16667V7H9.33333ZM2.91667 2.33333H1.16667V4.66667H10.5V2.33333H8.75V3.5H7.58333V2.33333H4.08333V3.5H2.91667V2.33333Z" fill="#3F67FD"/>
</svg>
