<svg width="13" height="14" viewBox="0 0 13 14" fill="none" xmlns="http://www.w3.org/2000/svg">
<path d="M11.0742 1.64062H9.02344V1.23047C9.02344 0.551988 8.47145 0 7.79297 0H4.51172C3.83324 0 3.28125 0.551988 3.28125 1.23047V1.64062H1.23047C0.551988 1.64062 0 2.19261 0 2.87109C0 3.416 0.356152 3.87901 0.847793 4.04034L1.57938 12.8717C1.63207 13.5044 2.17068 14 2.80558 14H9.49911C10.134 14 10.6726 13.5044 10.7254 12.8715L11.4569 4.04031C11.9485 3.87901 12.3047 3.416 12.3047 2.87109C12.3047 2.19261 11.7527 1.64062 11.0742 1.64062ZM4.10156 1.23047C4.10156 1.00431 4.28556 0.820312 4.51172 0.820312H7.79297C8.01913 0.820312 8.20312 1.00431 8.20312 1.23047V1.64062H4.10156V1.23047ZM9.90784 12.8036C9.89026 13.0145 9.71075 13.1797 9.49911 13.1797H2.80558C2.59397 13.1797 2.41443 13.0145 2.3969 12.8038L1.67601 4.10156H10.6287L9.90784 12.8036ZM11.0742 3.28125H1.23047C1.00431 3.28125 0.820312 3.09725 0.820312 2.87109C0.820312 2.64493 1.00431 2.46094 1.23047 2.46094H11.0742C11.3004 2.46094 11.4844 2.64493 11.4844 2.87109C11.4844 3.09725 11.3004 3.28125 11.0742 3.28125Z" fill="#3F67FD"/>
<path d="M4.51096 11.9239L4.1008 5.30667C4.08677 5.08056 3.89108 4.9086 3.66606 4.92268C3.43996 4.93671 3.26805 5.13134 3.28205 5.35742L3.6922 11.9746C3.70568 12.1921 3.88626 12.3594 4.10118 12.3594C4.33872 12.3594 4.52553 12.1594 4.51096 11.9239Z" fill="#3F67FD"/>
<path d="M6.15234 4.92188C5.92583 4.92188 5.74219 5.10552 5.74219 5.33203V11.9492C5.74219 12.1757 5.92583 12.3594 6.15234 12.3594C6.37886 12.3594 6.5625 12.1757 6.5625 11.9492V5.33203C6.5625 5.10552 6.37886 4.92188 6.15234 4.92188Z" fill="#3F67FD"/>
<path d="M8.63866 4.92268C8.41307 4.90865 8.21792 5.08056 8.20392 5.30666L7.79376 11.9239C7.77979 12.1499 7.9517 12.3446 8.17778 12.3586C8.40399 12.3726 8.59852 12.2006 8.61252 11.9746L9.02267 5.35741C9.03667 5.13131 8.86476 4.93668 8.63866 4.92268Z" fill="#3F67FD"/>
</svg>
