<svg width="14" height="12" viewBox="0 0 14 12" fill="none" xmlns="http://www.w3.org/2000/svg">
<path d="M13.0909 10.3636V8.18182C13.0909 8.03716 13.0334 7.89842 12.9311 7.79612C12.8289 7.69383 12.6901 7.63636 12.5455 7.63636C12.4008 7.63636 12.2621 7.69383 12.1598 7.79612C12.0575 7.89842 12 8.03716 12 8.18182V10.3636C12 10.5083 11.9425 10.647 11.8402 10.7493C11.7379 10.8516 11.5992 10.9091 11.4545 10.9091H1.63636C1.4917 10.9091 1.35296 10.8516 1.25067 10.7493C1.14838 10.647 1.09091 10.5083 1.09091 10.3636V8.18182C1.09091 8.03716 1.03344 7.89842 0.931149 7.79612C0.828857 7.69383 0.690118 7.63636 0.545455 7.63636C0.400791 7.63636 0.262053 7.69383 0.15976 7.79612C0.0574675 7.89842 0 8.03716 0 8.18182V10.3636C0 10.7976 0.172402 11.2138 0.47928 11.5207C0.786158 11.8276 1.20237 12 1.63636 12H11.4545C11.8885 12 12.3048 11.8276 12.6116 11.5207C12.9185 11.2138 13.0909 10.7976 13.0909 10.3636ZM9.61091 7.51636L6.88364 9.69818C6.78734 9.77428 6.66819 9.81567 6.54545 9.81567C6.42272 9.81567 6.30357 9.77428 6.20727 9.69818L3.48 7.51636C3.38063 7.42256 3.32008 7.29488 3.31035 7.15858C3.30061 7.02227 3.34239 6.88728 3.42742 6.7803C3.51245 6.67333 3.63454 6.60217 3.76952 6.5809C3.90451 6.55963 4.04256 6.58981 4.15636 6.66545L6 8.13818V0.545455C6 0.400791 6.05747 0.262053 6.15976 0.15976C6.26205 0.0574675 6.40079 0 6.54545 0C6.69012 0 6.82886 0.0574675 6.93115 0.15976C7.03344 0.262053 7.09091 0.400791 7.09091 0.545455V8.13818L8.93455 6.66545C8.98947 6.61361 9.05457 6.57373 9.12571 6.54836C9.19685 6.52298 9.27249 6.51266 9.34783 6.51804C9.42316 6.52342 9.49656 6.54439 9.56338 6.57962C9.63019 6.61485 9.68896 6.66358 9.73595 6.7227C9.78295 6.78183 9.81716 6.85008 9.83641 6.92311C9.85565 6.99615 9.85952 7.07239 9.84777 7.147C9.83601 7.22161 9.80889 7.29297 9.76812 7.35655C9.72735 7.42013 9.67381 7.47455 9.61091 7.51636Z" fill="#3F67FD"/>
</svg>
