<?xml version="1.0" encoding="UTF-8"?>
<svg version="1.1" xmlns="http://www.w3.org/2000/svg" width="512" height="512">
<path d="M0 0 C3.12578143 1.6720747 5.39281175 3.7856235 7 7 C7 15.25 7 23.5 7 32 C51.88 32 96.76 32 143 32 C143 23.75 143 15.5 143 7 C148.69658406 0.16409913 148.69658406 0.16409913 152.171875 -0.2734375 C159.98876369 -0.58137554 159.98876369 -0.58137554 163.5625 2.375 C171.81013471 11.25706815 167 14.00720036 167 32 C211.88 32 256.76 32 303 32 C303 23.75 303 15.5 303 7 C308.69658406 0.16409913 308.69658406 0.16409913 312.171875 -0.2734375 C319.98876369 -0.58137554 319.98876369 -0.58137554 323.5625 2.375 C327.00359072 6.08079001 327.12265791 7.71373463 327.09765625 12.6640625 C327.09443359 13.78554688 327.09121094 14.90703125 327.08789062 16.0625 C327.07951172 17.238125 327.07113281 18.41375 327.0625 19.625 C327.05798828 20.80835937 327.05347656 21.99171875 327.04882812 23.2109375 C327.03701467 26.14067507 327.02054258 29.07031272 327 32 C327.78536133 31.97905273 328.57072266 31.95810547 329.37988281 31.93652344 C333.00312036 31.85241066 336.62615148 31.80104012 340.25 31.75 C341.48492187 31.71648438 342.71984375 31.68296875 343.9921875 31.6484375 C357.53521846 31.50587928 367.82982079 34.97201015 378 44 C388.89358622 54.87499648 391.63006489 66.75119348 391.67764282 81.56037903 C391.66792516 83.43991357 391.65768456 85.31944547 391.64697266 87.19897461 C391.65375969 89.21084379 391.66266889 91.22270675 391.67352295 93.23455811 C391.69618327 98.66186105 391.68753771 104.08868516 391.67162752 109.51599574 C391.65891175 115.20798773 391.67072322 120.8999405 391.67855835 126.5919342 C391.68763322 136.14022137 391.67571837 145.68831459 391.65185547 155.23657227 C391.62459388 166.27214083 391.63350371 177.30724821 391.6609875 188.3428058 C391.68367411 197.83271988 391.68688244 207.32249516 391.67379415 216.81242758 C391.66600425 222.47429666 391.66494668 228.13594879 391.68147659 233.79780388 C391.69591735 239.11438002 391.68590651 244.4303602 391.65700531 249.74687195 C391.6503948 251.69715955 391.65229156 253.64749733 391.66331863 255.59776497 C391.67698571 258.26030657 391.65984582 260.92093882 391.63491821 263.58335876 C391.64607182 264.35465856 391.65722543 265.12595836 391.66871703 265.92063087 C391.56330487 271.72553335 389.98322451 274.0788975 386 278 C383.39583332 279.47569445 380.98601434 279.92052433 378 280 C372.19901832 278.35638852 370.92183416 276.9022927 367 272 C367 232.4 367 192.8 367 152 C227.08 152 87.16 152 -57 152 C-56.87625 197.21 -56.7525 242.42 -56.625 289 C-56.57400146 310.42615234 -56.57400146 310.42615234 -56.52197266 332.28515625 C-56.48207161 345.07043888 -56.48207161 345.07043888 -56.43954468 357.85571289 C-56.42064848 363.55786007 -56.40714712 369.25998887 -56.39730835 374.9621582 C-56.3859418 381.5390005 -56.36772747 388.11578141 -56.34107121 394.69258016 C-56.32765152 398.05660662 -56.31839629 401.42050135 -56.31574559 404.78456306 C-56.31242942 408.38910856 -56.29697566 411.9934055 -56.2784729 415.59790039 C-56.28040838 416.64430695 -56.28234386 417.6907135 -56.284338 418.76882935 C-56.22084076 427.05368233 -55.55658871 434.41982916 -50 441 C-42.68546995 446.78285496 -35.7335982 447.15007145 -26.7010498 447.12457275 C-25.77319026 447.1259829 -24.84533072 447.12739305 -23.88935423 447.12884593 C-20.78494479 447.13249152 -17.68058124 447.12916562 -14.57617188 447.12597656 C-12.34859685 447.1273717 -10.12102208 447.12927125 -7.89344788 447.13163757 C-3.09880866 447.13613106 1.695822 447.13799058 6.49046326 447.13809967 C14.07052784 447.1392403 21.65054377 447.15207982 29.23059082 447.16766357 C31.14964367 447.17152285 31.14964367 447.17152285 33.10746527 447.1754601 C35.72328953 447.18072644 38.33911375 447.18601192 40.95493793 447.19131613 C47.6725935 447.20468535 54.39025039 447.21696921 61.10791016 447.22802734 C61.78181284 447.2291409 62.45571552 447.23025447 63.15003949 447.23140177 C74.07727604 447.24898736 85.00447556 447.25184495 95.93172389 447.25017694 C107.15754579 447.24889779 118.38323153 447.26697272 129.60901022 447.30119491 C135.90927118 447.31967447 142.20925447 447.32897981 148.50953674 447.31671906 C154.43254142 447.30530351 160.35504818 447.31693699 166.27798653 447.34635353 C168.45241457 447.35300684 170.626888 447.35110565 172.80129814 447.34005547 C175.76848054 447.32622641 178.7339719 447.34302941 181.7010498 447.36749268 C182.5627253 447.3561373 183.4244008 447.34478192 184.31218767 447.33308244 C188.51437349 447.40051889 191.18390334 447.72444249 194.51062775 450.41501999 C197.782985 453.81305661 198.87530446 456.31501059 199 461 C197.5100606 466.25860966 195.64175517 469.14343627 191 472 C187.83857419 472.57988887 184.72695032 472.53988852 181.52000427 472.50793457 C180.08071874 472.51729451 180.08071874 472.51729451 178.61235672 472.52684355 C175.39423525 472.54280931 172.17686745 472.53015465 168.95874023 472.51757812 C166.65237485 472.52299788 164.34601294 472.53011971 162.03965759 472.53881836 C155.77066677 472.55707899 149.50193881 472.54997081 143.2329433 472.53730202 C136.66953491 472.52718012 130.10614914 472.53656624 123.54273987 472.54284668 C111.80553949 472.55139613 100.06844961 472.53814976 88.33126838 472.51780933 C77.70768396 472.49996756 67.08427456 472.5030178 56.46069336 472.52148438 C44.11292632 472.54293813 31.76527084 472.55083099 19.41748768 472.53903532 C12.88567314 472.53281113 6.35397889 472.53193452 -0.17782784 472.54518127 C-6.32648451 472.55677886 -12.47481269 472.54864232 -18.62343407 472.52560425 C-20.87435995 472.52033643 -23.12531371 472.5217977 -25.37622833 472.53065491 C-42.16293025 472.59059273 -54.88477904 471.64228076 -68 460 C-77.64767498 450.36878862 -81.5340882 439.19079959 -81.66871703 425.69849777 C-81.65791233 424.29150792 -81.64662929 422.88452167 -81.63491821 421.47753906 C-81.64069189 419.94939881 -81.64864132 418.42126552 -81.65855443 416.89314651 C-81.67928027 412.72884132 -81.66917834 408.56511464 -81.65362334 404.40080833 C-81.64225479 399.89627692 -81.65979969 395.39184116 -81.67352295 390.8873291 C-81.69570142 382.07678245 -81.69097826 373.26644933 -81.67645974 364.45589447 C-81.66514623 357.29239659 -81.66364573 350.12895836 -81.66907883 342.9654541 C-81.66984499 341.94408521 -81.67061116 340.92271632 -81.67140054 339.87039685 C-81.67299924 337.79520128 -81.67462031 335.72000573 -81.6762635 333.6448102 C-81.69050521 314.20710797 -81.67415305 294.76952385 -81.64726166 275.33184099 C-81.62492434 258.67038696 -81.62880491 242.00910714 -81.65185547 225.34765625 C-81.67864136 205.97728485 -81.68913206 186.60701683 -81.67379415 167.23662949 C-81.67220148 165.16926831 -81.67062963 163.10190711 -81.66907883 161.0345459 C-81.66830745 160.0174892 -81.66753607 159.0004325 -81.66674132 157.95255589 C-81.66243269 150.80155652 -81.6696928 143.65062297 -81.68147659 136.49963379 C-81.69553114 127.77934688 -81.69163965 119.05928488 -81.66507287 110.33902359 C-81.65197437 105.893762 -81.64671419 101.44887476 -81.66331863 97.00361633 C-81.67831404 92.92732904 -81.66987388 88.85175995 -81.64343087 84.77553701 C-81.63788622 83.30801264 -81.64059515 81.84042647 -81.65280981 80.37294245 C-81.7531054 67.31243323 -78.99174283 56.30790607 -70.2890625 46.28515625 C-61.05355433 37.06540833 -50.88093396 31.8751547 -37.703125 31.609375 C-35.21844547 31.63552952 -32.73390256 31.6825872 -30.25 31.75 C-28.32800781 31.77707031 -28.32800781 31.77707031 -26.3671875 31.8046875 C-23.24397664 31.85130259 -20.12241126 31.91671862 -17 32 C-17.03927612 30.91114502 -17.03927612 30.91114502 -17.0793457 29.80029297 C-17.1836681 26.49208459 -17.24843872 23.1842228 -17.3125 19.875 C-17.35439453 18.73289062 -17.39628906 17.59078125 -17.43945312 16.4140625 C-17.5775945 6.90993617 -17.5775945 6.90993617 -14.60546875 3.2578125 C-10.05732161 -0.68346043 -5.87172261 -0.82725648 0 0 Z M-52.25 64.5 C-64.10229352 81.43184789 -57 114.12352186 -57 128 C82.92 128 222.84 128 367 128 C370.52164704 97.35381865 370.52164704 97.35381865 361 63 C353.34876478 56.1138883 346.03161721 55.84052257 336.125 55.9375 C334.80628906 55.94426758 334.80628906 55.94426758 333.4609375 55.95117188 C331.30726197 55.96287663 329.15362183 55.98080931 327 56 C326.98598145 57.09671021 326.98598145 57.09671021 326.97167969 58.21557617 C326.91787336 61.54022718 326.83424496 64.86348678 326.75 68.1875 C326.73582031 69.33798828 326.72164063 70.48847656 326.70703125 71.67382812 C326.67480469 72.78564453 326.64257812 73.89746094 326.609375 75.04296875 C326.5779541 76.57473755 326.5779541 76.57473755 326.54589844 78.13745117 C325.86727282 81.69598667 324.47575692 83.40172961 322 86 C318.30274625 87.84862688 314.03538558 87.47587094 310 87 C307.06576805 85.20353146 305.52794645 84.0558929 304 81 C303.67 72.75 303.34 64.5 303 56 C258.12 56 213.24 56 167 56 C166.67 64.25 166.34 72.5 166 81 C162 86 162 86 160 87 C155.08003072 87.53118252 151.22672403 87.75105553 146.9375 85.125 C139.35752011 76.81147367 143.60660104 71.165026 143 56 C98.12 56 53.24 56 7 56 C6.67 64.25 6.34 72.5 6 81 C2 86 2 86 0 87 C-4.91996928 87.53118252 -8.77327597 87.75105553 -13.0625 85.125 C-16.09411254 81.80000561 -16.16009501 79.75731253 -16.31640625 75.3359375 C-16.35830078 74.21445313 -16.40019531 73.09296875 -16.44335938 71.9375 C-16.48267578 70.761875 -16.52199219 69.58625 -16.5625 68.375 C-16.60568359 67.19164063 -16.64886719 66.00828125 -16.69335938 64.7890625 C-16.79967426 61.85949672 -16.90170642 58.92984412 -17 56 C-20.00024947 55.94555999 -22.99949039 55.9061164 -26 55.875 C-26.83917969 55.85824219 -27.67835937 55.84148438 -28.54296875 55.82421875 C-37.9097044 55.7516084 -45.69079475 57.21199417 -52.25 64.5 Z " fill="#000000" transform="translate(85,4)"/>
<path d="M0 0 C0.96583008 0.31348389 0.96583008 0.31348389 1.95117188 0.63330078 C30.62626011 10.2710759 52.29996232 31.42487315 66 58 C67.99081834 62.25623231 69.58699714 66.51962438 71 71 C71.39316406 72.24136719 71.78632813 73.48273438 72.19140625 74.76171875 C79.9557571 102.24672982 75.77759944 132.72502368 62.0859375 157.56640625 C46.67751017 183.56429061 23.17681006 201.76734957 -5.98925781 209.49658203 C-6.65280273 209.66270996 -7.31634766 209.82883789 -8 210 C-8.7228418 210.18546387 -9.44568359 210.37092773 -10.19042969 210.56201172 C-17.60099615 212.2664116 -24.91979525 212.38600453 -32.5 212.375 C-33.16196381 212.37412384 -33.82392761 212.37324768 -34.50595093 212.37234497 C-64.7343357 212.24062988 -89.9027167 200.5160486 -111.6875 179.625 C-131.51709219 159.1614244 -141.41445892 132.66318209 -141.375 104.4375 C-141.37445618 103.77869843 -141.37391235 103.11989685 -141.37335205 102.44113159 C-141.3318949 91.48865002 -140.45520813 81.4050674 -137 71 C-136.78569336 70.3507959 -136.57138672 69.7015918 -136.35058594 69.03271484 C-131.05569922 53.57580754 -122.95374552 40.96857782 -112 29 C-111.3090625 28.23816406 -110.618125 27.47632813 -109.90625 26.69140625 C-98.17068906 14.35463829 -82.17265259 5.10046619 -66 0 C-64.13794922 -0.58974609 -64.13794922 -0.58974609 -62.23828125 -1.19140625 C-42.65556725 -6.72340555 -19.33938797 -6.39257885 0 0 Z M-89 42 C-89.75925781 42.66515625 -90.51851563 43.3303125 -91.30078125 44.015625 C-100.60013336 52.68859588 -107.57251904 64.11742243 -112 76 C-112.391875 77.02351563 -112.78375 78.04703125 -113.1875 79.1015625 C-119.72070534 99.20024282 -117.37253936 121.47786075 -108.25 140.25 C-97.34064031 161.45954155 -80.21371759 176.71613449 -57.4765625 184.15234375 C-35.18874716 190.60891706 -13.77778389 188.23550508 6.8125 177.6875 C12.7218207 174.33864384 17.9339852 170.51443865 23 166 C23.75925781 165.33484375 24.51851562 164.6696875 25.30078125 163.984375 C34.60013336 155.31140412 41.57251904 143.88257757 46 132 C46.391875 130.97648437 46.78375 129.95296875 47.1875 128.8984375 C53.72070534 108.79975718 51.37253936 86.52213925 42.25 67.75 C31.34064031 46.54045845 14.21371759 31.28386551 -8.5234375 23.84765625 C-37.23075408 15.53141299 -66.55332534 21.99726814 -89 42 Z " fill="#000000" transform="translate(433,296)"/>
<path d="M0 0 C0.71241852 -0.00817749 1.42483704 -0.01635498 2.15884399 -0.02478027 C4.52157754 -0.04963511 6.88425094 -0.0661519 9.24707031 -0.08056641 C10.05415688 -0.08589008 10.86124344 -0.09121376 11.69278717 -0.09669876 C15.96608023 -0.12343289 20.23934406 -0.14280545 24.51269531 -0.15722656 C28.92241625 -0.17386013 33.33138774 -0.2186255 37.74082565 -0.26959801 C41.13467241 -0.30329134 44.52834189 -0.3148063 47.92234039 -0.32045364 C49.54743415 -0.32716221 51.17251639 -0.34237422 52.7974472 -0.36634445 C55.07651865 -0.39804138 57.35357761 -0.39802708 59.6328125 -0.390625 C60.92805847 -0.39871185 62.22330444 -0.40679871 63.55780029 -0.41513062 C68.18145326 0.38409406 69.78191568 1.91077414 73.07519531 5.19287109 C74.55315588 8.14879222 74.23522744 10.81840122 74.26806641 14.11767578 C74.28033264 15.18630356 74.28033264 15.18630356 74.29284668 16.27651978 C74.31770152 18.63925333 74.3342183 21.00192672 74.34863281 23.36474609 C74.35395649 24.17183266 74.35928017 24.97891922 74.36476517 25.81046295 C74.3914993 30.08375601 74.41087185 34.35701984 74.42529297 38.63037109 C74.44192654 43.04009203 74.4866919 47.44906352 74.53766441 51.85850143 C74.57135774 55.25234819 74.5828727 58.64601767 74.58852005 62.04001617 C74.59522862 63.66510993 74.61044063 65.29019218 74.63441086 66.91512299 C74.66610779 69.19419443 74.66609349 71.47125339 74.65869141 73.75048828 C74.66677826 75.04573425 74.67486511 76.34098022 74.68319702 77.67547607 C73.88397234 82.29912904 72.35729227 83.89959146 69.07519531 87.19287109 C66.11927418 88.67083166 63.44966518 88.35290322 60.15039062 88.38574219 C59.43797211 88.39391968 58.72555359 88.40209717 57.99154663 88.41052246 C55.62881308 88.4353773 53.26613969 88.45189408 50.90332031 88.46630859 C49.69269047 88.47429411 49.69269047 88.47429411 48.45760345 88.48244095 C44.1843104 88.50917508 39.91104656 88.52854763 35.63769531 88.54296875 C31.22797437 88.55960232 26.81900289 88.60436768 22.40956497 88.65534019 C19.01571822 88.68903352 15.62204874 88.70054848 12.22805023 88.70619583 C10.60295648 88.7129044 8.97787423 88.72811641 7.35294342 88.75208664 C5.07387197 88.78378357 2.79681302 88.78376927 0.51757812 88.77636719 C-0.77766785 88.78445404 -2.07291382 88.79254089 -3.40740967 88.8008728 C-8.03106264 88.00164812 -9.63152505 86.47496805 -12.92480469 83.19287109 C-14.40276525 80.23694996 -14.08483682 77.56734096 -14.11767578 74.26806641 C-14.12585327 73.55564789 -14.13403076 72.84322937 -14.14245605 72.10922241 C-14.1673109 69.74648886 -14.18382768 67.38381547 -14.19824219 65.02099609 C-14.20356586 64.21390953 -14.20888954 63.40682297 -14.21437454 62.57527924 C-14.24110867 58.30198618 -14.26048123 54.02872234 -14.27490234 49.75537109 C-14.29153591 45.34565015 -14.33630128 40.93667867 -14.38727379 36.52724075 C-14.42096712 33.133394 -14.43248208 29.73972452 -14.43812943 26.34572601 C-14.444838 24.72063226 -14.46005 23.09555001 -14.48402023 21.4706192 C-14.51571716 19.19154776 -14.51570286 16.9144888 -14.50830078 14.63525391 C-14.51638763 13.34000793 -14.52447449 12.04476196 -14.5328064 10.71026611 C-13.73358172 6.08661315 -12.20690164 4.48615073 -8.92480469 1.19287109 C-5.96888356 -0.28508947 -3.29927456 0.03283897 0 0 Z M10.07519531 24.19287109 C10.07519531 37.39287109 10.07519531 50.59287109 10.07519531 64.19287109 C23.27519531 64.19287109 36.47519531 64.19287109 50.07519531 64.19287109 C50.07519531 50.99287109 50.07519531 37.79287109 50.07519531 24.19287109 C36.87519531 24.19287109 23.67519531 24.19287109 10.07519531 24.19287109 Z " fill="#000000" transform="translate(81.9248046875,323.80712890625)"/>
<path d="M0 0 C0.71241852 -0.00817749 1.42483704 -0.01635498 2.15884399 -0.02478027 C4.52157754 -0.04963511 6.88425094 -0.0661519 9.24707031 -0.08056641 C10.05415688 -0.08589008 10.86124344 -0.09121376 11.69278717 -0.09669876 C15.96608023 -0.12343289 20.23934406 -0.14280545 24.51269531 -0.15722656 C28.92241625 -0.17386013 33.33138774 -0.2186255 37.74082565 -0.26959801 C41.13467241 -0.30329134 44.52834189 -0.3148063 47.92234039 -0.32045364 C49.54743415 -0.32716221 51.17251639 -0.34237422 52.7974472 -0.36634445 C55.07651865 -0.39804138 57.35357761 -0.39802708 59.6328125 -0.390625 C60.92805847 -0.39871185 62.22330444 -0.40679871 63.55780029 -0.41513062 C68.18145326 0.38409406 69.78191568 1.91077414 73.07519531 5.19287109 C74.55315588 8.14879222 74.23522744 10.81840122 74.26806641 14.11767578 C74.28033264 15.18630356 74.28033264 15.18630356 74.29284668 16.27651978 C74.31770152 18.63925333 74.3342183 21.00192672 74.34863281 23.36474609 C74.35395649 24.17183266 74.35928017 24.97891922 74.36476517 25.81046295 C74.3914993 30.08375601 74.41087185 34.35701984 74.42529297 38.63037109 C74.44192654 43.04009203 74.4866919 47.44906352 74.53766441 51.85850143 C74.57135774 55.25234819 74.5828727 58.64601767 74.58852005 62.04001617 C74.59522862 63.66510993 74.61044063 65.29019218 74.63441086 66.91512299 C74.66610779 69.19419443 74.66609349 71.47125339 74.65869141 73.75048828 C74.66677826 75.04573425 74.67486511 76.34098022 74.68319702 77.67547607 C73.88397234 82.29912904 72.35729227 83.89959146 69.07519531 87.19287109 C66.11927418 88.67083166 63.44966518 88.35290322 60.15039062 88.38574219 C59.43797211 88.39391968 58.72555359 88.40209717 57.99154663 88.41052246 C55.62881308 88.4353773 53.26613969 88.45189408 50.90332031 88.46630859 C49.69269047 88.47429411 49.69269047 88.47429411 48.45760345 88.48244095 C44.1843104 88.50917508 39.91104656 88.52854763 35.63769531 88.54296875 C31.22797437 88.55960232 26.81900289 88.60436768 22.40956497 88.65534019 C19.01571822 88.68903352 15.62204874 88.70054848 12.22805023 88.70619583 C10.60295648 88.7129044 8.97787423 88.72811641 7.35294342 88.75208664 C5.07387197 88.78378357 2.79681302 88.78376927 0.51757812 88.77636719 C-0.77766785 88.78445404 -2.07291382 88.79254089 -3.40740967 88.8008728 C-8.03106264 88.00164812 -9.63152505 86.47496805 -12.92480469 83.19287109 C-14.40276525 80.23694996 -14.08483682 77.56734096 -14.11767578 74.26806641 C-14.12585327 73.55564789 -14.13403076 72.84322937 -14.14245605 72.10922241 C-14.1673109 69.74648886 -14.18382768 67.38381547 -14.19824219 65.02099609 C-14.20356586 64.21390953 -14.20888954 63.40682297 -14.21437454 62.57527924 C-14.24110867 58.30198618 -14.26048123 54.02872234 -14.27490234 49.75537109 C-14.29153591 45.34565015 -14.33630128 40.93667867 -14.38727379 36.52724075 C-14.42096712 33.133394 -14.43248208 29.73972452 -14.43812943 26.34572601 C-14.444838 24.72063226 -14.46005 23.09555001 -14.48402023 21.4706192 C-14.51571716 19.19154776 -14.51570286 16.9144888 -14.50830078 14.63525391 C-14.51638763 13.34000793 -14.52447449 12.04476196 -14.5328064 10.71026611 C-13.73358172 6.08661315 -12.20690164 4.48615073 -8.92480469 1.19287109 C-5.96888356 -0.28508947 -3.29927456 0.03283897 0 0 Z M10.07519531 24.19287109 C10.07519531 37.39287109 10.07519531 50.59287109 10.07519531 64.19287109 C23.27519531 64.19287109 36.47519531 64.19287109 50.07519531 64.19287109 C50.07519531 50.99287109 50.07519531 37.79287109 50.07519531 24.19287109 C36.87519531 24.19287109 23.67519531 24.19287109 10.07519531 24.19287109 Z " fill="#000000" transform="translate(209.9248046875,195.80712890625)"/>
<path d="M0 0 C0.71241852 -0.00817749 1.42483704 -0.01635498 2.15884399 -0.02478027 C4.52157754 -0.04963511 6.88425094 -0.0661519 9.24707031 -0.08056641 C10.05415688 -0.08589008 10.86124344 -0.09121376 11.69278717 -0.09669876 C15.96608023 -0.12343289 20.23934406 -0.14280545 24.51269531 -0.15722656 C28.92241625 -0.17386013 33.33138774 -0.2186255 37.74082565 -0.26959801 C41.13467241 -0.30329134 44.52834189 -0.3148063 47.92234039 -0.32045364 C49.54743415 -0.32716221 51.17251639 -0.34237422 52.7974472 -0.36634445 C55.07651865 -0.39804138 57.35357761 -0.39802708 59.6328125 -0.390625 C60.92805847 -0.39871185 62.22330444 -0.40679871 63.55780029 -0.41513062 C68.18145326 0.38409406 69.78191568 1.91077414 73.07519531 5.19287109 C74.55315588 8.14879222 74.23522744 10.81840122 74.26806641 14.11767578 C74.28033264 15.18630356 74.28033264 15.18630356 74.29284668 16.27651978 C74.31770152 18.63925333 74.3342183 21.00192672 74.34863281 23.36474609 C74.35395649 24.17183266 74.35928017 24.97891922 74.36476517 25.81046295 C74.3914993 30.08375601 74.41087185 34.35701984 74.42529297 38.63037109 C74.44192654 43.04009203 74.4866919 47.44906352 74.53766441 51.85850143 C74.57135774 55.25234819 74.5828727 58.64601767 74.58852005 62.04001617 C74.59522862 63.66510993 74.61044063 65.29019218 74.63441086 66.91512299 C74.66610779 69.19419443 74.66609349 71.47125339 74.65869141 73.75048828 C74.66677826 75.04573425 74.67486511 76.34098022 74.68319702 77.67547607 C73.88397234 82.29912904 72.35729227 83.89959146 69.07519531 87.19287109 C66.11927418 88.67083166 63.44966518 88.35290322 60.15039062 88.38574219 C59.43797211 88.39391968 58.72555359 88.40209717 57.99154663 88.41052246 C55.62881308 88.4353773 53.26613969 88.45189408 50.90332031 88.46630859 C49.69269047 88.47429411 49.69269047 88.47429411 48.45760345 88.48244095 C44.1843104 88.50917508 39.91104656 88.52854763 35.63769531 88.54296875 C31.22797437 88.55960232 26.81900289 88.60436768 22.40956497 88.65534019 C19.01571822 88.68903352 15.62204874 88.70054848 12.22805023 88.70619583 C10.60295648 88.7129044 8.97787423 88.72811641 7.35294342 88.75208664 C5.07387197 88.78378357 2.79681302 88.78376927 0.51757812 88.77636719 C-0.77766785 88.78445404 -2.07291382 88.79254089 -3.40740967 88.8008728 C-8.03106264 88.00164812 -9.63152505 86.47496805 -12.92480469 83.19287109 C-14.40276525 80.23694996 -14.08483682 77.56734096 -14.11767578 74.26806641 C-14.12585327 73.55564789 -14.13403076 72.84322937 -14.14245605 72.10922241 C-14.1673109 69.74648886 -14.18382768 67.38381547 -14.19824219 65.02099609 C-14.20356586 64.21390953 -14.20888954 63.40682297 -14.21437454 62.57527924 C-14.24110867 58.30198618 -14.26048123 54.02872234 -14.27490234 49.75537109 C-14.29153591 45.34565015 -14.33630128 40.93667867 -14.38727379 36.52724075 C-14.42096712 33.133394 -14.43248208 29.73972452 -14.43812943 26.34572601 C-14.444838 24.72063226 -14.46005 23.09555001 -14.48402023 21.4706192 C-14.51571716 19.19154776 -14.51570286 16.9144888 -14.50830078 14.63525391 C-14.51638763 13.34000793 -14.52447449 12.04476196 -14.5328064 10.71026611 C-13.73358172 6.08661315 -12.20690164 4.48615073 -8.92480469 1.19287109 C-5.96888356 -0.28508947 -3.29927456 0.03283897 0 0 Z M10.07519531 24.19287109 C10.07519531 37.39287109 10.07519531 50.59287109 10.07519531 64.19287109 C23.27519531 64.19287109 36.47519531 64.19287109 50.07519531 64.19287109 C50.07519531 50.99287109 50.07519531 37.79287109 50.07519531 24.19287109 C36.87519531 24.19287109 23.67519531 24.19287109 10.07519531 24.19287109 Z " fill="#000000" transform="translate(81.9248046875,195.80712890625)"/>
<path d="M0 0 C3.12578143 1.6720747 5.39281175 3.7856235 7 7 C7.08711775 10.06242321 7.1154846 13.10186465 7.09765625 16.1640625 C7.0962413 17.07127045 7.09482635 17.97847839 7.09336853 18.91317749 C7.08776096 21.81715155 7.07520718 24.72104915 7.0625 27.625 C7.05748598 29.59114472 7.0529229 31.55729065 7.04882812 33.5234375 C7.03778906 38.3489879 7.02051935 43.17448097 7 48 C7.72590332 47.97381592 8.45180664 47.94763184 9.19970703 47.9206543 C12.50791541 47.8163319 15.8157772 47.75156128 19.125 47.6875 C20.26710938 47.64560547 21.40921875 47.60371094 22.5859375 47.56054688 C32.09006383 47.4224055 32.09006383 47.4224055 35.7421875 50.39453125 C39.26596078 54.46089245 39.38980471 57.1924869 39.359375 62.44921875 C38.78039966 66.55868504 37.00085071 68.21349577 34 71 C28.69744803 73.65127598 20.14130248 72.3139607 14.234375 72.35009766 C12.25183357 72.36664046 10.26935138 72.39390835 8.28710938 72.43212891 C5.42546719 72.48701364 2.5652233 72.50879047 -0.296875 72.5234375 C-1.17833191 72.54610687 -2.05978882 72.56877625 -2.96795654 72.59213257 C-7.28450511 72.57738093 -10.1176107 72.36309507 -13.54394531 69.59228516 C-16.95059992 65.99667296 -17.13114608 64.38111787 -17.19287109 59.54394531 C-17.20893402 58.40225891 -17.22499695 57.26057251 -17.24154663 56.08428955 C-17.28593888 50.8556902 -17.32750897 45.6271786 -17.35009766 40.3984375 C-17.36342128 37.63963546 -17.39124243 34.88157589 -17.43212891 32.12304688 C-17.49101723 28.1497604 -17.50876985 24.17683293 -17.5234375 20.203125 C-17.54610687 18.97168762 -17.56877625 17.74025024 -17.59213257 16.47149658 C-17.56856521 6.92646537 -17.56856521 6.92646537 -14.59228516 3.23730469 C-10.04799018 -0.68470691 -5.85647761 -0.82510864 0 0 Z " fill="#000000" transform="translate(405,340)"/>
</svg>
