<svg width="13" height="14" viewBox="0 0 13 14" fill="none" xmlns="http://www.w3.org/2000/svg">
<path d="M9.07227 0.400391C9.85839 0.40063 10.4951 1.03804 10.4951 1.82422C10.4949 2.6102 9.85824 3.24683 9.07227 3.24707C8.28608 3.24707 7.64868 2.61034 7.64844 1.82422C7.64844 1.03789 8.28594 0.400391 9.07227 0.400391Z" stroke="#3F67FD" stroke-width="0.8"/>
<path d="M8.16895 4.47754H9.97363C10.504 4.47754 10.972 4.81456 11.1445 5.31055L11.1748 5.41211L12.2139 9.48828C12.3029 9.84014 12.0368 10.1815 11.6748 10.1816H10.4951V13.1797C10.4951 13.4126 10.308 13.5995 10.0752 13.5996H8.06543C7.83247 13.5996 7.64457 13.4126 7.64453 13.1797V10.1816H6.46875C6.1066 10.1816 5.83951 9.83931 5.92871 9.4873L6.96777 5.41211L6.96875 5.41113C7.10693 4.86253 7.60217 4.47764 8.16895 4.47754Z" stroke="#3F67FD" stroke-width="0.8"/>
<path d="M1.08398 9.13965L0.75 9.08301C0.550609 9.04918 0.400391 8.87636 0.400391 8.66797V5.7207C0.400391 5.03656 0.956487 4.48047 1.64062 4.48047H3.37695C4.06378 4.48052 4.61719 5.03386 4.61719 5.7207V8.66797C4.61719 8.87631 4.4669 9.04913 4.26758 9.08301L3.93359 9.13965V13.1797C3.93359 13.4126 3.74661 13.6005 3.51367 13.6006H1.50391C1.27093 13.6006 1.08398 13.4127 1.08398 13.1797V9.13965Z" stroke="#3F67FD" stroke-width="0.8"/>
<path d="M2.50977 0.400391C3.29589 0.40063 3.93262 1.03804 3.93262 1.82422C3.93238 2.6102 3.29574 3.24683 2.50977 3.24707C1.72358 3.24707 1.08618 2.61034 1.08594 1.82422C1.08594 1.03789 1.72344 0.400391 2.50977 0.400391Z" stroke="#3F67FD" stroke-width="0.8"/>
</svg>
