<svg width="14" height="14" viewBox="0 0 14 14" fill="none" xmlns="http://www.w3.org/2000/svg">
<path d="M6.99951 0C3.13089 0 0 3.13053 0 6.99951C0 10.8681 3.13053 13.999 6.99951 13.999C10.8681 13.999 13.999 10.8685 13.999 6.99951C13.999 3.13089 10.8685 0 6.99951 0ZM6.99951 13.0223C3.67852 13.0223 0.976678 10.3205 0.976678 6.99951C0.976678 3.67849 3.67852 0.976678 6.99951 0.976678C10.3205 0.976678 13.0223 3.67849 13.0223 6.99951C13.0223 10.3205 10.3205 13.0223 6.99951 13.0223Z" fill="#3F67FD"/>
<path d="M6.79202 8.85645C6.40505 8.85645 6.0918 9.17891 6.0918 9.56586C6.0918 9.94364 6.39584 10.2753 6.79202 10.2753C7.1882 10.2753 7.50143 9.94364 7.50143 9.56586C7.50143 9.17891 7.17896 8.85645 6.79202 8.85645Z" fill="#3F67FD"/>
<path d="M6.91076 3.48535C5.66693 3.48535 5.0957 4.22246 5.0957 4.71997C5.0957 5.0793 5.39974 5.24515 5.6485 5.24515C6.14604 5.24515 5.94335 4.53569 6.88312 4.53569C7.34378 4.53569 7.71234 4.7384 7.71234 5.16223C7.71234 5.65974 7.19638 5.94535 6.89234 6.20332C6.62512 6.43362 6.27504 6.81141 6.27504 7.60377C6.27504 8.08286 6.40404 8.22107 6.78177 8.22107C7.23321 8.22107 7.32535 8.01838 7.32535 7.84329C7.32535 7.3642 7.33456 7.0878 7.84132 6.69162C8.09007 6.49815 8.8732 5.87161 8.8732 5.00556C8.8732 4.13951 8.09007 3.48535 6.91076 3.48535Z" fill="#3F67FD"/>
</svg>