<svg width="14" height="14" viewBox="0 0 14 14" fill="none" xmlns="http://www.w3.org/2000/svg">
<path d="M14 7C14 8.85652 13.2625 10.637 11.9497 11.9497C10.637 13.2625 8.85652 14 7 14C5.14348 14 3.36301 13.2625 2.05025 11.9497C0.737498 10.637 0 8.85652 0 7C0 6.86739 0.0526784 6.74022 0.146447 6.64645C0.240215 6.55268 0.367392 6.5 0.5 6.5C0.632608 6.5 0.759785 6.55268 0.853553 6.64645C0.947322 6.74022 1 6.86739 1 7C0.997998 8.33903 1.4433 9.64037 2.26523 10.6975C3.08716 11.7545 4.23861 12.5068 5.53684 12.8349C6.83506 13.1629 8.20566 13.048 9.4311 12.5082C10.6565 11.9685 11.6666 11.0349 12.3009 9.85566C12.9353 8.67642 13.1576 7.31909 12.9325 5.9991C12.7075 4.67912 12.048 3.47212 11.0588 2.56968C10.0695 1.66724 8.80719 1.12107 7.47214 1.01787C6.13709 0.914658 4.80582 1.26033 3.68963 2H4C4.13261 2 4.25979 2.05268 4.35355 2.14645C4.44732 2.24022 4.5 2.3674 4.5 2.5C4.5 2.63261 4.44732 2.75979 4.35355 2.85356C4.25979 2.94733 4.13261 3 4 3H2.5C2.43433 3.00004 2.36929 2.98713 2.30861 2.96202C2.24793 2.93691 2.1928 2.90008 2.14636 2.85364C2.09993 2.8072 2.0631 2.75207 2.03798 2.69139C2.01287 2.63071 1.99996 2.56568 2 2.5V1C2 0.867396 2.05268 0.740219 2.14645 0.64645C2.24021 0.552682 2.36739 0.500004 2.5 0.500004C2.63261 0.500004 2.75979 0.552682 2.85355 0.64645C2.94732 0.740219 3 0.867396 3 1V1.25696C4.04939 0.525552 5.27917 0.0957376 6.5557 0.014226C7.83224 -0.0672857 9.1067 0.202624 10.2406 0.794624C11.3745 1.38662 12.3244 2.27807 12.9872 3.37209C13.65 4.46612 14.0003 5.72087 14 7ZM8.77734 7.584L7.5 6.73242V4.5C7.5 4.3674 7.44732 4.24022 7.35355 4.14645C7.25979 4.05268 7.13261 4 7 4C6.86739 4 6.74021 4.05268 6.64645 4.14645C6.55268 4.24022 6.5 4.3674 6.5 4.5V7C6.50002 7.08231 6.52035 7.16334 6.55919 7.23591C6.59803 7.30848 6.65418 7.37034 6.72265 7.416L8.22266 8.416C8.333 8.48802 8.4673 8.51358 8.59638 8.48711C8.72546 8.46064 8.83887 8.38429 8.91196 8.27466C8.98506 8.16502 9.01192 8.03097 8.98671 7.90164C8.9615 7.77231 8.88626 7.65816 8.77734 7.584ZM11.5 7C11.5 6.10999 11.2361 5.23996 10.7416 4.49994C10.2471 3.75992 9.54434 3.18314 8.72208 2.84255C7.89981 2.50195 6.99501 2.41284 6.12209 2.58647C5.24918 2.7601 4.44736 3.18869 3.81802 3.81802C3.18868 4.44736 2.7601 5.24918 2.58647 6.1221C2.41283 6.99501 2.50195 7.89981 2.84254 8.72208C3.18314 9.54435 3.75991 10.2472 4.49993 10.7416C5.23995 11.2361 6.10998 11.5 7 11.5C8.19307 11.4987 9.33691 11.0242 10.1805 10.1805C11.0242 9.33691 11.4987 8.19308 11.5 7ZM10.5 7C10.5 7.69224 10.2947 8.36893 9.91014 8.9445C9.52556 9.52007 8.97893 9.96868 8.33939 10.2336C7.69985 10.4985 6.99612 10.5678 6.31718 10.4328C5.63825 10.2977 5.01461 9.96436 4.52513 9.47488C4.03564 8.98539 3.7023 8.36175 3.56725 7.68282C3.4322 7.00389 3.50152 6.30015 3.76642 5.66061C4.03133 5.02107 4.47993 4.47444 5.0555 4.08986C5.63108 3.70527 6.30777 3.5 7 3.5C7.92791 3.50113 8.8175 3.87024 9.47363 4.52637C10.1298 5.1825 10.4989 6.07209 10.5 7Z" fill="#333333"/>
</svg>
