<svg width="22" height="22" viewBox="0 0 22 22" fill="none" xmlns="http://www.w3.org/2000/svg">
<path d="M11 0.5C10.5917 0.5 10.2097 0.658333 9.9209 0.947266L0.946289 9.9209H0.945312V9.92188C0.35204 10.5164 0.351898 11.4839 0.945312 12.0781C1.23452 12.3672 1.61621 12.5254 2.02441 12.5254H2.85645V19.6299C2.85647 20.6604 3.69541 21.4999 4.72656 21.5H8.23828C8.31817 21.4999 8.38281 21.4352 8.38281 21.3555V16.1777C8.38281 15.3053 9.09156 14.5969 9.96387 14.5967H12.0352C12.9077 14.5967 13.6172 15.3052 13.6172 16.1777V21.3555C13.6172 21.4352 13.6819 21.5 13.7617 21.5H17.2725C18.3037 21.5 19.1435 20.6605 19.1436 19.6299V12.5254H20.0156L20.0293 12.5234H20.042C20.4256 12.507 20.7833 12.3496 21.0547 12.0781C21.6471 11.4855 21.6486 10.5206 21.0586 9.92578C21.0543 9.92144 21.0499 9.91713 21.0488 9.91602L12.0791 0.947266C11.7902 0.658353 11.4084 0.500035 11 0.5Z" stroke="#888888"/>
</svg>
