<svg width="14" height="14" viewBox="0 0 14 14" fill="none" xmlns="http://www.w3.org/2000/svg">
<path d="M7 12.1907L9.88732 9.30334C11.482 7.70874 11.482 5.1233 9.88732 3.52866C8.29272 1.93402 5.70729 1.93402 4.11265 3.52866C2.51801 5.1233 2.51801 7.70874 4.11265 9.30334L7 12.1907ZM7 13.8406L3.28769 10.1283C1.23744 8.07805 1.23744 4.75396 3.28769 2.70371C5.33794 0.653452 8.66203 0.653452 10.7123 2.70371C12.7626 4.75396 12.7626 8.07805 10.7123 10.1283L7 13.8406ZM7 7.58268C7.64435 7.58268 8.16667 7.06037 8.16667 6.41602C8.16667 5.77168 7.64435 5.24935 7 5.24935C6.35565 5.24935 5.83333 5.77168 5.83333 6.41602C5.83333 7.06037 6.35565 7.58268 7 7.58268ZM7 8.74935C5.71133 8.74935 4.66667 7.70466 4.66667 6.41602C4.66667 5.12735 5.71133 4.08268 7 4.08268C8.28864 4.08268 9.33333 5.12735 9.33333 6.41602C9.33333 7.70466 8.28864 8.74935 7 8.74935Z" fill="#3F67FD"/>
</svg>
