<svg width="20" height="17" viewBox="0 0 20 17" fill="none" xmlns="http://www.w3.org/2000/svg">
<path d="M1.27734 0.400391H18.3145C18.5157 0.400391 18.7112 0.471535 18.8682 0.602539L18.9336 0.662109C19.0988 0.831942 19.1924 1.06274 19.1924 1.30469V15.2178C19.1923 15.4595 19.0987 15.6896 18.9336 15.8594C18.7674 16.0284 18.5446 16.1221 18.3145 16.1221H1.27734C1.0474 16.122 0.825274 16.0283 0.65918 15.8594C0.494065 15.6896 0.400489 15.4596 0.400391 15.2178V1.30469C0.400391 1.0627 0.493899 0.831951 0.65918 0.662109C0.825273 0.493174 1.04741 0.400508 1.27734 0.400391ZM9.37012 2.20898C9.03638 2.20905 8.7158 2.34353 8.48145 2.58398C8.44303 2.62326 8.40753 2.66475 8.375 2.70801C7.88808 2.46199 7.27664 2.31498 6.63379 2.50488L6.50293 2.54785C6.01001 2.7279 5.40595 3.23559 4.86621 4.03906C3.72157 5.74189 2.67221 8.99214 3.53613 13.8213C3.59779 14.1648 3.8664 14.4371 4.21387 14.4951C4.56341 14.5532 4.90756 14.3807 5.07422 14.0723L5.0752 14.0684V14.0693L5.07617 14.0674C5.07708 14.0657 5.07877 14.0627 5.08105 14.0586C5.08586 14.0499 5.09376 14.0358 5.10449 14.0176C5.12602 13.981 5.15889 13.9267 5.20312 13.8604C5.29239 13.7266 5.42512 13.5461 5.59668 13.3623C5.94623 12.9878 6.42144 12.6367 6.99219 12.5684C7.11798 12.5533 7.32191 12.5881 7.57324 12.6934C7.76048 12.7718 7.95005 12.8798 8.11816 13.001V13.0439C8.11828 13.3761 8.24745 13.6978 8.48145 13.9365V13.9375C8.7158 14.178 9.03634 14.3134 9.37012 14.3135H10.2227C10.5564 14.3134 10.876 14.177 11.1104 13.9365C11.3446 13.6978 11.4735 13.3763 11.4736 13.0439V13.001C11.6419 12.8796 11.8321 12.7719 12.0195 12.6934C12.2709 12.5881 12.4748 12.5533 12.6006 12.5684C13.1714 12.6367 13.6465 12.9878 13.9961 13.3623C14.1676 13.5461 14.2994 13.7266 14.3887 13.8604C14.433 13.9268 14.4667 13.9809 14.4883 14.0176C14.499 14.0359 14.5069 14.0499 14.5117 14.0586L14.5166 14.0674V14.0684L14.5186 14.0723C14.6852 14.3805 15.0286 14.553 15.3779 14.4951H15.3789C15.7263 14.4371 15.995 14.1647 16.0566 13.8213C16.9206 8.99214 15.8702 5.74189 14.7256 4.03906C14.2534 3.33624 13.7324 2.85962 13.2793 2.63086L13.0898 2.54785C12.3989 2.295 11.7368 2.44599 11.2168 2.70898C11.1841 2.6655 11.149 2.62345 11.1104 2.58398H11.1113C10.877 2.34352 10.5564 2.2091 10.2227 2.20898H9.37012ZM12.6748 9.53027C12.7765 9.53642 12.9153 9.5898 13.0957 9.71973C13.1841 9.78339 13.2739 9.85952 13.3652 9.94434L13.6436 10.2227C14.1162 10.7257 14.5079 11.3186 14.6768 11.5879C14.6729 11.6407 14.6675 11.6937 14.6631 11.7471C14.1749 11.3523 13.5488 11.0006 12.7959 10.9102H12.7949C12.3922 10.8622 11.9217 10.9611 11.4736 11.1357V10.1963C11.6583 9.94421 12.03 9.55577 12.5537 9.53027H12.6748ZM6.91797 9.53027C7.5043 9.49591 7.91908 9.92319 8.11816 10.1943V11.1357C7.75206 10.9931 7.37133 10.8999 7.02441 10.8975L6.79688 10.9102C6.04382 11.0006 5.41688 11.3515 4.92871 11.7461C4.92427 11.693 4.91895 11.6404 4.91504 11.5879C5.05997 11.3576 5.36712 10.8918 5.74805 10.4473L5.94922 10.2227C6.13714 10.0232 6.32032 9.84706 6.49707 9.71973C6.67748 9.58979 6.81624 9.53637 6.91797 9.53027ZM12.4062 6.76953H12.4072C12.7317 6.8338 13.1101 7.10954 13.498 7.48047C13.8001 7.77 14.0651 8.08322 14.2559 8.32617C14.3506 8.44683 14.4262 8.54872 14.4775 8.62012C14.5032 8.65581 14.5232 8.68449 14.5361 8.70312C14.5425 8.71231 14.5478 8.71921 14.5508 8.72363C14.5522 8.72574 14.5531 8.7276 14.5537 8.72852L14.6064 8.79883C14.6152 8.80932 14.6246 8.8191 14.6338 8.8291C14.6354 8.84275 14.6371 8.85641 14.6387 8.87012C14.5676 8.80037 14.4965 8.73122 14.4229 8.66602V8.66504L14.2373 8.51074C13.8594 8.21049 13.433 7.97159 12.9922 7.89062L12.7705 7.86426C12.2749 7.83482 11.8412 7.94285 11.4736 8.1123V7.3418C11.5622 7.2197 11.6998 7.0562 11.873 6.92773C12.0521 6.796 12.2242 6.73347 12.4062 6.76953ZM7.18555 6.76953C7.32214 6.74235 7.45347 6.77044 7.58594 6.8418L7.71973 6.92773C7.89244 7.05583 8.02962 7.21886 8.11816 7.34082V8.1123C7.78895 7.96063 7.40693 7.85772 6.97461 7.85938L6.82129 7.86426C6.2287 7.89911 5.65071 8.24068 5.16992 8.66504C5.09613 8.73023 5.02431 8.7993 4.95312 8.86914C4.95463 8.85575 4.95647 8.84243 4.95801 8.8291C4.96733 8.81895 4.97746 8.80949 4.98633 8.79883L5.03906 8.72852C5.03969 8.72759 5.04053 8.72578 5.04199 8.72363C5.04502 8.7192 5.05024 8.71235 5.05664 8.70312C5.06957 8.68449 5.08956 8.65581 5.11523 8.62012C5.16662 8.5487 5.24218 8.44682 5.33691 8.32617C5.48008 8.14385 5.66491 7.9219 5.87598 7.7002L6.09473 7.48047C6.43422 7.15587 6.76639 6.90451 7.06152 6.80371L7.18555 6.76953ZM7.06543 4.11621C7.23478 4.05453 7.42442 4.09168 7.64746 4.20605V4.20703C7.83382 4.30352 7.99808 4.4327 8.11816 4.54199V5.25391C7.75506 5.10652 7.33427 5.03938 6.86914 5.13086H6.86816C6.53816 5.19628 6.21404 5.34176 5.90723 5.52832C6.12498 5.11101 6.34757 4.78258 6.55273 4.54492C6.7833 4.2779 6.96531 4.1543 7.06641 4.11719L7.06543 4.11621ZM11.9443 4.20605C12.1675 4.09151 12.357 4.05565 12.5264 4.11719C12.6275 4.15431 12.8094 4.27784 13.04 4.54492C13.245 4.7823 13.4661 5.11075 13.6836 5.52734C13.3773 5.34132 13.0539 5.19618 12.7246 5.13086H12.7236C12.2581 5.03927 11.8369 5.10631 11.4736 5.25391V4.54297C11.5938 4.43347 11.7584 4.30377 11.9453 4.20703L11.9443 4.20605Z" stroke="#3F67FD" stroke-width="0.8"/>
</svg>
