<svg width="20" height="23" viewBox="0 0 20 23" fill="none" xmlns="http://www.w3.org/2000/svg">
<path d="M9.96177 13.0511C11.3797 13.0511 12.6903 12.6515 13.7387 11.9726C14.5508 11.4527 15.6079 11.5386 16.3211 12.1875C18.302 13.9836 19.4278 16.5316 19.4235 19.2086V20.3558C19.4235 21.5418 18.461 22.5 17.2751 22.5H2.64849C1.46255 22.5 0.500049 21.5418 0.500049 20.3558V19.2086C0.491455 16.5359 1.61724 13.9836 3.5981 12.1918C4.31138 11.5429 5.37271 11.457 6.18052 11.9769C7.23325 12.6515 8.5395 13.0511 9.96177 13.0511Z" stroke="#888888"/>
<path d="M9.96211 11.1391C12.9 11.1391 15.2816 8.75743 15.2816 5.81953C15.2816 2.88164 12.9 0.5 9.96211 0.5C7.02421 0.5 4.64258 2.88164 4.64258 5.81953C4.64258 8.75743 7.02421 11.1391 9.96211 11.1391Z" stroke="#888888"/>
</svg>
