<svg width="9" height="9" viewBox="0 0 9 9" fill="none" xmlns="http://www.w3.org/2000/svg">
<path d="M0 1.25L2.91667 0L5.41667 1.25L8.04292 0.124458C8.14871 0.0791334 8.27117 0.128121 8.3165 0.233879C8.32758 0.259812 8.33333 0.287733 8.33333 0.315946V7.08333L5.41667 8.33333L2.91667 7.08333L0.2904 8.20887C0.184642 8.25421 0.0621709 8.20521 0.0168459 8.09946C0.00572919 8.07354 0 8.04558 0 8.01737V1.25ZM5.83333 7.24812L7.5 6.53383V1.26378L5.83333 1.97807V7.24812ZM5 7.19329V1.97336L3.33333 1.14003V6.35996L5 7.19329ZM2.5 6.35525V1.08521L0.833333 1.7995V7.06954L2.5 6.35525Z" fill="#3F67FD"/>
</svg>
