<svg width="22" height="22" viewBox="0 0 22 22" fill="none" xmlns="http://www.w3.org/2000/svg">
<path d="M11 0C4.93012 0 0 4.93012 0 11C0 17.0699 4.93012 22 11 22C17.0699 22 22 17.0699 22 11C22 4.93012 17.0699 0 11 0ZM11 21.0458C5.46024 21.0458 0.954217 16.5398 0.954217 11C0.954217 5.46024 5.46024 0.954217 11 0.954217C16.5398 0.954217 21.0458 5.46024 21.0458 11C21.0458 16.5398 16.5398 21.0458 11 21.0458Z" fill="#3F67FD"/>
<path d="M16.7256 8.61423H13.3858V5.27447C13.3858 5.00941 13.1738 4.79736 12.9087 4.79736H9.09183C8.82677 4.79736 8.61472 5.00941 8.61472 5.27447V8.61423H5.27496C5.0099 8.61423 4.79785 8.82628 4.79785 9.09134V12.9082C4.79785 13.1733 5.0099 13.3853 5.27496 13.3853H8.61472V16.7251C8.61472 16.9901 8.82677 17.2022 9.09183 17.2022H12.9087C13.1738 17.2022 13.3858 16.9901 13.3858 16.7251V13.3853H16.7256C16.9906 13.3853 17.2027 13.1733 17.2027 12.9082V9.09134C17.1762 8.82628 16.9641 8.61423 16.7256 8.61423ZM16.275 12.4311H16.2485H12.9087C12.6436 12.4311 12.4316 12.6431 12.4316 12.9082V16.248H9.56894V12.9082C9.56894 12.6431 9.35689 12.4311 9.09183 12.4311H5.75207V9.56845H9.09183C9.35689 9.56845 9.56894 9.3564 9.56894 9.09134V5.75158H12.4581V9.09134C12.4581 9.3564 12.6701 9.56845 12.9352 9.56845H16.275V12.4311Z" fill="#3F67FD"/>
</svg>
