<svg width="16" height="21" viewBox="0 0 16 21" fill="none" xmlns="http://www.w3.org/2000/svg">
<path d="M7.71429 14.5714C6.57805 14.5701 5.48874 14.1181 4.68531 13.3147C3.88187 12.5113 3.42991 11.4219 3.42857 10.2857V4.28571C3.42857 3.14907 3.8801 2.05898 4.68383 1.25526C5.48756 0.451529 6.57764 0 7.71429 0C8.85093 0 9.94102 0.451529 10.7447 1.25526C11.5485 2.05898 12 3.14907 12 4.28571V10.2857C11.9987 11.4219 11.5467 12.5113 10.7433 13.3147C9.93983 14.1181 8.85052 14.5701 7.71429 14.5714ZM7.71429 1.71429C7.03253 1.71503 6.37891 1.98619 5.89684 2.46827C5.41476 2.95034 5.14361 3.60396 5.14286 4.28571V10.2857C5.14286 10.9677 5.41377 11.6218 5.89601 12.104C6.37825 12.5862 7.0323 12.8571 7.71429 12.8571C8.39627 12.8571 9.05032 12.5862 9.53256 12.104C10.0148 11.6218 10.2857 10.9677 10.2857 10.2857V4.28571C10.285 3.60396 10.0138 2.95034 9.53173 2.46827C9.04966 1.98619 8.39604 1.71503 7.71429 1.71429ZM15.4286 10.2857C15.4286 10.0584 15.3383 9.84037 15.1775 9.67962C15.0168 9.51888 14.7988 9.42857 14.5714 9.42857C14.3441 9.42857 14.1261 9.51888 13.9653 9.67962C13.8046 9.84037 13.7143 10.0584 13.7143 10.2857C13.7143 11.877 13.0821 13.4031 11.9569 14.5284C10.8317 15.6536 9.30558 16.2857 7.71429 16.2857C6.12299 16.2857 4.59686 15.6536 3.47165 14.5284C2.34643 13.4031 1.71429 11.877 1.71429 10.2857C1.71429 10.0584 1.62398 9.84037 1.46323 9.67962C1.30249 9.51888 1.08447 9.42857 0.857143 9.42857C0.629814 9.42857 0.411797 9.51888 0.251051 9.67962C0.090306 9.84037 0 10.0584 0 10.2857C3.04871e-08 12.3317 0.812753 14.2938 2.25946 15.7405C3.70617 17.1872 5.66833 18 7.71429 18C9.76024 18 11.7224 17.1872 13.1691 15.7405C14.6158 14.2938 15.4286 12.3317 15.4286 10.2857ZM8.57143 19.7143V17.1429C8.57143 16.9155 8.48112 16.6975 8.32038 16.5368C8.15963 16.376 7.94161 16.2857 7.71429 16.2857C7.48696 16.2857 7.26894 16.376 7.10819 16.5368C6.94745 16.6975 6.85714 16.9155 6.85714 17.1429V19.7143C6.85714 19.9416 6.94745 20.1596 7.10819 20.3204C7.26894 20.4811 7.48696 20.5714 7.71429 20.5714C7.94161 20.5714 8.15963 20.4811 8.32038 20.3204C8.48112 20.1596 8.57143 19.9416 8.57143 19.7143Z" fill="#333333"/>
</svg>
