<svg width="17" height="21" viewBox="0 0 17 21" fill="none" xmlns="http://www.w3.org/2000/svg">
<path d="M0 21C0 16.5817 3.59093 13 8.02057 13C12.4502 13 16.0411 16.5817 16.0411 21H14.036C14.036 17.6863 11.3428 15 8.02057 15C4.69834 15 2.00514 17.6863 2.00514 21H0ZM8.02057 12C4.69704 12 2.00514 9.315 2.00514 6C2.00514 2.685 4.69704 0 8.02057 0C11.3441 0 14.036 2.685 14.036 6C14.036 9.315 11.3441 12 8.02057 12ZM8.02057 10C10.2362 10 12.0308 8.21 12.0308 6C12.0308 3.79 10.2362 2 8.02057 2C5.80488 2 4.01028 3.79 4.01028 6C4.01028 8.21 5.80488 10 8.02057 10Z" fill="#888888"/>
</svg>
