<svg width="19" height="22" viewBox="0 0 19 22" fill="none" xmlns="http://www.w3.org/2000/svg">
<path d="M18.48 4.4L14.1994 0.265612C14.0789 0.14728 13.7239 0 13.5548 0H2.19178C0.865793 0 0 1.07875 0 2.40491V19.5951C0 20.9211 0.865626 22 2.19178 22H16.2891C17.615 22 18.48 20.9212 18.48 19.5951V12.32V5.28C18.48 5.10695 18.4589 4.641 18.48 4.4ZM14.08 1.32L17.16 4.4L14.4043 4.41437C14.2913 4.41437 14.08 4.41437 14.08 4.20943V1.32ZM16.2891 21.12H2.2C1.58484 21.12 0.88 20.2104 0.88 19.5951V2.40491C0.88 1.78958 1.57646 0.88 2.19178 0.88H13.2V4.20943C13.2 4.84 13.5548 5.28 14.1994 5.28H17.6V19.5951C17.6 20.2104 17.16 21.12 16.2891 21.12Z" fill="#888888"/>
<path d="M13.7158 10.2266H4.62988C4.27388 10.2266 3.98535 10.5151 3.98535 10.8711C3.98535 11.2271 4.27388 11.5156 4.62988 11.5156H13.7158C14.0718 11.5156 14.3603 11.2271 14.3603 10.8711C14.3603 10.5151 14.0718 10.2266 13.7158 10.2266Z" fill="#888888"/>
<path d="M4.62988 14.0938H12.0383C12.3943 14.0938 12.6828 13.8052 12.6828 13.4492C12.6828 13.0932 12.3943 12.8047 12.0383 12.8047H4.62988C4.27388 12.8047 3.98535 13.0932 3.98535 13.4492C3.98535 13.8052 4.27388 14.0938 4.62988 14.0938Z" fill="#888888"/>
<path d="M12.9321 15.3828H4.62988C4.27388 15.3828 3.98535 15.6713 3.98535 16.0273C3.98535 16.3833 4.27388 16.6719 4.62988 16.6719H12.9321C13.2879 16.6719 13.5766 16.3833 13.5766 16.0273C13.5766 15.6713 13.2879 15.3828 12.9321 15.3828Z" fill="#888888"/>
</svg>
