<svg width="8" height="12" viewBox="0 0 8 12" fill="none" xmlns="http://www.w3.org/2000/svg">
<path d="M4.68083 6.00254L0.191657 1.51317C0.0680466 1.38985 4.673e-05 1.22498 4.673e-05 1.04917C4.673e-05 0.873268 0.0680466 0.708488 0.191657 0.584976L0.585022 0.191805C0.708436 0.0680975 0.873413 0 1.04922 0C1.22502 0 1.3898 0.0680975 1.51331 0.191805L6.85839 5.53678C6.98239 5.66068 7.05029 5.82624 7.0498 6.00224C7.05029 6.17902 6.98249 6.34439 6.85839 6.46839L1.51829 11.8082C1.39478 11.9319 1.23 12 1.0541 12C0.878291 12 0.71351 11.9319 0.5899 11.8082L0.196632 11.415C-0.0592704 11.1591 -0.0592704 10.7425 0.196632 10.4867L4.68083 6.00254Z" fill="#888888"/>
</svg>
