<svg width="14" height="14" viewBox="0 0 14 14" fill="none" xmlns="http://www.w3.org/2000/svg">
<path d="M6.99984 12.8337C3.77817 12.8337 1.1665 10.222 1.1665 7.00033C1.1665 3.77866 3.77817 1.16699 6.99984 1.16699C10.2215 1.16699 12.8332 3.77866 12.8332 7.00033C12.8332 10.222 10.2215 12.8337 6.99984 12.8337ZM6.99984 11.667C9.57718 11.667 11.6665 9.57767 11.6665 7.00033C11.6665 4.423 9.57718 2.33366 6.99984 2.33366C4.42251 2.33366 2.33317 4.423 2.33317 7.00033C2.33317 9.57767 4.42251 11.667 6.99984 11.667ZM7.58317 7.00033H9.9165V8.16699H6.4165V4.08366H7.58317V7.00033Z" fill="#3F67FD"/>
</svg>
