<svg width="22" height="20" viewBox="0 0 22 20" fill="none" xmlns="http://www.w3.org/2000/svg">
<path d="M5 20C4.895 20 4.78929 19.9764 4.69 19.9293C4.44357 19.81 4.28571 19.5607 4.28571 19.2857V15.7143H2.14286C0.961428 15.7143 0 14.7529 0 13.5714V2.14286C0 0.961429 0.961428 0 2.14286 0H19.2857C20.4671 0 21.4286 0.961429 21.4286 2.14286V13.5714C21.4286 14.7529 20.4671 15.7143 19.2857 15.7143H10.6079L5.44643 19.8436C5.31714 19.9471 5.15929 20 5 20ZM2.14286 1.42857C1.74857 1.42857 1.42857 1.74929 1.42857 2.14286V13.5714C1.42857 13.965 1.74857 14.2857 2.14286 14.2857H5C5.395 14.2857 5.71429 14.605 5.71429 15V17.8L9.91071 14.4421C10.0379 14.3407 10.1943 14.2857 10.3571 14.2857H19.2857C19.68 14.2857 20 13.965 20 13.5714V2.14286C20 1.74929 19.68 1.42857 19.2857 1.42857H2.14286Z" fill="#3F67FD"/>
<path d="M16.4285 7.14342H4.99993C4.60493 7.14342 4.28564 6.82342 4.28564 6.42913C4.28564 6.03484 4.60493 5.71484 4.99993 5.71484H16.4285C16.8235 5.71484 17.1428 6.03484 17.1428 6.42913C17.1428 6.82342 16.8235 7.14342 16.4285 7.14342Z" fill="#3F67FD"/>
<path d="M10.7142 9.99888H4.99993C4.60493 9.99888 4.28564 9.67888 4.28564 9.2846C4.28564 8.89031 4.60493 8.57031 4.99993 8.57031H10.7142C11.1092 8.57031 11.4285 8.89031 11.4285 9.2846C11.4285 9.67888 11.1092 9.99888 10.7142 9.99888Z" fill="#3F67FD"/>
</svg>
