<svg width="18" height="20" viewBox="0 0 18 20" fill="none" xmlns="http://www.w3.org/2000/svg">
<path d="M1.46387 0.75H15.5996L15.7383 0.765625C15.8737 0.79437 15.9989 0.862 16.0977 0.961914C16.2293 1.09533 16.3036 1.27548 16.3037 1.46289V18.293C16.3037 18.4706 16.2544 18.6448 16.1611 18.7959C16.0677 18.9471 15.9334 19.0689 15.7744 19.1484C15.6155 19.2279 15.4377 19.262 15.2607 19.2461C15.0837 19.2301 14.9137 19.1653 14.7715 19.0586V19.0576L9.55176 15.1553C9.25321 14.9316 8.88963 14.8105 8.5166 14.8105C8.14375 14.8106 7.78084 14.9318 7.48242 15.1553L2.2627 19.0576C2.10477 19.175 1.91531 19.2412 1.71875 19.249C1.58128 19.2476 1.44609 19.2143 1.32422 19.1504L1.30664 19.1416L1.29004 19.1338L1.17383 19.0693C1.06319 18.9977 0.968166 18.9028 0.896484 18.791C0.824985 18.6793 0.778654 18.5541 0.759766 18.4238L0.75 18.292V1.46387C0.75 1.27466 0.825193 1.09278 0.958984 0.958984C1.09278 0.825193 1.27466 0.75 1.46387 0.75Z" stroke="white" stroke-width="1.5"/>
</svg>