<svg width="20" height="18" viewBox="0 0 20 18" fill="none" xmlns="http://www.w3.org/2000/svg">
<path d="M18.8089 6.84471L2.67244 0.149042C1.99263 -0.133067 1.22466 -0.00896536 0.668181 0.472753C0.111696 0.95455 -0.121038 1.69686 0.0608368 2.41006L1.64654 8.6285L0.0608368 14.8469C-0.121038 15.5601 0.111657 16.3024 0.668141 16.7842C1.22568 17.267 1.99384 17.3895 2.67244 17.108L18.8089 10.4123C19.5436 10.1074 20 9.42393 20 8.6285C20 7.83307 19.5436 7.14955 18.8089 6.84471ZM18.3597 9.32986L2.2233 16.0255C1.95193 16.1381 1.65736 16.0906 1.43521 15.8982C1.2131 15.7059 1.12384 15.4212 1.19642 15.1365L2.70654 9.21443H8.52939C8.85302 9.21443 9.11537 8.95209 9.11537 8.62846C9.11537 8.30482 8.85302 8.04248 8.52939 8.04248H2.70658L1.19642 2.12053C1.12384 1.83584 1.2131 1.55107 1.43521 1.35877C1.65732 1.16646 1.95181 1.11889 2.22326 1.23146L18.3597 7.92713C18.7943 8.10744 18.8281 8.50955 18.8281 8.6285C18.8281 8.74744 18.7943 9.14955 18.3597 9.32986Z" fill="white"/>
</svg>
