<svg width="14" height="15" viewBox="0 0 14 15" fill="none" xmlns="http://www.w3.org/2000/svg">
<path d="M8.27402 10.5909L4.46875 8.39393M4.46875 6.2673L8.27402 4.07031" stroke="#3F67FD" stroke-miterlimit="2.6131"/>
<path d="M11.6191 4.51039C12.4494 3.68 12.4494 2.33367 11.6191 1.50329C10.7887 0.672897 9.44234 0.672897 8.61195 1.50329C7.78156 2.33367 7.78156 3.68 8.61195 4.51039C9.44234 5.34077 10.7887 5.34077 11.6191 4.51039Z" stroke="#3F67FD" stroke-miterlimit="2.6131"/>
<path d="M12.2287 11.8865C12.3569 10.7192 11.5144 9.66903 10.3471 9.54091C9.1798 9.41279 8.12964 10.2552 8.00152 11.4225C7.8734 12.5898 8.71582 13.64 9.88314 13.7681C11.0504 13.8962 12.1006 13.0538 12.2287 11.8865Z" stroke="#3F67FD" stroke-miterlimit="2.6131"/>
<path d="M4.72601 7.67122C4.91414 6.51201 4.12693 5.41978 2.96772 5.23165C1.80851 5.04351 0.716276 5.83073 0.528144 6.98994C0.340011 8.14914 1.12722 9.24138 2.28643 9.42951C3.44564 9.61764 4.53788 8.83043 4.72601 7.67122Z" stroke="#3F67FD" stroke-miterlimit="2.6131"/>
</svg>
