<svg width="13" height="14" viewBox="0 0 13 14" fill="none" xmlns="http://www.w3.org/2000/svg">
<path d="M6.44842 14C6.64526 13.9998 6.83878 13.9494 7.01063 13.8534L9.23974 12.615C10.3478 11.999 11.271 11.098 11.9139 10.0054C12.5568 8.91274 12.8961 7.66814 12.8965 6.40039V2.96422C12.8966 2.67815 12.7906 2.40221 12.599 2.18979C12.4074 1.97737 12.1438 1.84357 11.8593 1.8143C10.9725 1.7203 10.0998 1.52307 9.25879 1.22661C8.48796 0.954247 7.74854 0.600024 7.05323 0.170015C6.87119 0.0588286 6.6617 0 6.4484 0C6.2351 0 6.02593 0.0588286 5.84389 0.170015C5.14845 0.599962 4.40895 0.954181 3.63806 1.22661C2.79707 1.52308 1.92433 1.72032 1.03758 1.81432C0.753021 1.84359 0.489434 1.97738 0.297832 2.1898C0.10623 2.40222 0.000237465 2.67816 0.000365257 2.96422V6.40041C0.000794411 7.66816 0.340022 8.91276 0.982939 10.0054C1.62586 11.098 2.5491 11.999 3.65711 12.615L5.88622 13.8534C6.05807 13.9494 6.25159 13.9998 6.44842 14ZM6.53142 1.01411C7.28733 1.48104 8.09102 1.86577 8.92877 2.16174C9.84256 2.4843 10.791 2.69867 11.7547 2.80048C11.7956 2.80399 11.8338 2.82277 11.8615 2.85311C11.8893 2.88344 11.9046 2.92311 11.9045 2.96422V6.40041C11.9041 7.49123 11.6122 8.56213 11.059 9.50226C10.5058 10.4424 9.71134 11.2176 8.75795 11.7476L6.52883 12.986C6.50433 13 6.47662 13.0073 6.44842 13.0073C6.42023 13.0073 6.39251 13 6.36802 12.986L4.1389 11.7476C3.18551 11.2176 2.3911 10.4424 1.83789 9.50226C1.28467 8.56213 0.992764 7.49123 0.992374 6.40041V2.96422C0.992236 2.92311 1.00757 2.88344 1.03533 2.85311C1.06309 2.82278 1.10124 2.804 1.14221 2.8005C2.10589 2.69869 3.05432 2.48432 3.96811 2.16176C4.80586 1.86579 5.60955 1.48105 6.36547 1.01411C6.39048 0.998897 6.41919 0.990852 6.44846 0.990852C6.47774 0.990852 6.5064 0.998897 6.53142 1.01411Z" fill="#3F67FD"/>
<path d="M4.79611 10.4571H8.10281C8.49732 10.4567 8.87555 10.2998 9.15452 10.0208C9.43348 9.74185 9.59039 9.36362 9.59082 8.9691V6.98508C9.59039 6.59057 9.43348 6.21234 9.15452 5.93338C8.87555 5.65441 8.49732 5.4975 8.10281 5.49707H4.79611C4.40159 5.4975 4.02336 5.65441 3.7444 5.93338C3.46544 6.21234 3.30853 6.59057 3.30809 6.98508V8.9691C3.30853 9.36362 3.46544 9.74185 3.7444 10.0208C4.02336 10.2998 4.40159 10.4567 4.79611 10.4571ZM8.10281 6.48908C8.23431 6.48922 8.36039 6.54153 8.45337 6.63452C8.54636 6.7275 8.59867 6.85358 8.59881 6.98508V8.9691C8.59867 9.10061 8.54636 9.22668 8.45337 9.31967C8.36039 9.41266 8.23431 9.46496 8.10281 9.46511H4.79611C4.6646 9.46496 4.53853 9.41266 4.44554 9.31967C4.35255 9.22668 4.30025 9.10061 4.3001 8.9691V6.98508C4.30025 6.85358 4.35255 6.7275 4.44554 6.63452C4.53853 6.54153 4.6646 6.48922 4.79611 6.48908H8.10281Z" fill="#3F67FD"/>
<path d="M5.12622 6.48893H7.77157C7.90311 6.48889 8.02925 6.43663 8.12226 6.34361C8.21527 6.2506 8.26754 6.12446 8.26758 5.99293V4.67025C8.26758 4.1879 8.07597 3.72531 7.7349 3.38424C7.39383 3.04317 6.93124 2.85156 6.44889 2.85156C5.96655 2.85156 5.50396 3.04317 5.16289 3.38424C4.82182 3.72531 4.63021 4.1879 4.63021 4.67025V5.99293C4.63025 6.12446 4.68251 6.2506 4.77553 6.34361C4.86854 6.43663 4.99468 6.48889 5.12622 6.48893ZM7.27557 5.49692H5.62222V4.67025C5.62222 4.451 5.70932 4.24073 5.86435 4.0857C6.01938 3.93067 6.22965 3.84357 6.44889 3.84357C6.66814 3.84357 6.87841 3.93067 7.03344 4.0857C7.18847 4.24073 7.27557 4.451 7.27557 4.67025V5.49692Z" fill="#3F67FD"/>
</svg>
