<svg width="23" height="23" viewBox="0 0 23 23" fill="none" xmlns="http://www.w3.org/2000/svg">
<path d="M1.39795 9.47973V2.74506C1.39795 2.00113 2.00098 1.3981 2.74491 1.3981H3.1939" stroke="#3F67FD" stroke-miterlimit="10" stroke-linecap="round" stroke-linejoin="round"/>
<path d="M4.09182 2.2959C3.59588 2.2959 3.19385 1.89387 3.19385 1.39793C3.19385 0.902036 3.59588 0.5 4.09182 0.5C4.58776 0.5 4.98979 0.901991 4.98979 1.39797C4.98975 1.89391 4.58776 2.2959 4.09182 2.2959Z" stroke="#3F67FD" stroke-miterlimit="10" stroke-linecap="round" stroke-linejoin="round"/>
<path d="M12.6226 9.47973V2.74506C12.6226 2.00113 12.0195 1.3981 11.2756 1.3981H10.8267" stroke="#3F67FD" stroke-miterlimit="10" stroke-linecap="round" stroke-linejoin="round"/>
<path d="M9.92874 2.29595C10.4247 2.29595 10.8267 1.89391 10.8267 1.39797C10.8267 0.902036 10.4247 0.5 9.92874 0.5C9.4328 0.5 9.03076 0.901991 9.03076 1.39797C9.03081 1.89396 9.4328 2.29595 9.92874 2.29595Z" stroke="#3F67FD" stroke-miterlimit="10" stroke-linecap="round" stroke-linejoin="round"/>
<path d="M11.7244 9.4796V9.65292C11.7244 12.2584 9.63231 14.4093 7.02683 14.4183C4.41555 14.4274 2.2959 12.3133 2.2959 9.70407V9.4796H0.5V9.70407C0.5 12.9948 2.94177 15.7148 6.11222 16.1523V17.5612C6.11222 18.0572 6.51426 18.4592 7.0102 18.4592C7.50614 18.4592 7.90817 18.0572 7.90817 17.5612V16.1523C11.0786 15.7148 13.5204 12.9949 13.5204 9.70407V9.4796H11.7244Z" stroke="#3F67FD" stroke-miterlimit="10" stroke-linecap="round" stroke-linejoin="round"/>
<path d="M19.8961 21.3644C19.8325 21.3052 20.011 21.4713 17.7119 19.3329C17.1522 18.7733 17.1518 17.8654 17.7119 17.3053C18.2719 16.7453 19.1796 16.7453 19.7396 17.3053L19.8961 17.4618L20.0527 17.3053C20.6127 16.7453 21.5203 16.7453 22.0803 17.3053C22.64 17.8649 22.6403 18.773 22.0803 19.3329C19.7824 21.4701 19.9524 21.312 19.8961 21.3644Z" stroke="#3F67FD" stroke-miterlimit="10" stroke-linecap="round" stroke-linejoin="round"/>
<path d="M7.01025 18.4592C7.01025 20.6909 8.81939 22.5 11.051 22.5H11.2756C13.5072 22.5 15.3164 20.6909 15.3164 18.4592V11.3205C15.3164 10.0559 16.3415 9.03067 17.6061 9.03067C18.8707 9.03067 19.8959 10.0559 19.8959 11.3205V17.462" stroke="#3F67FD" stroke-miterlimit="10" stroke-linecap="round" stroke-linejoin="round"/>
</svg>
