<svg width="19" height="16" viewBox="0 0 19 16" fill="none" xmlns="http://www.w3.org/2000/svg">
<path d="M16.4103 16H1.64108C0.738431 16 0 15.2614 0 14.3589V1.64093C0 0.738432 0.738431 0 1.64108 0H4.99489C5.32302 0 5.63071 0.128155 5.86674 0.358924L7.43585 1.93329C7.51277 2.01022 7.62049 2.05123 7.72821 2.05123H9.02569V2.87169H7.72311C7.39483 2.87169 7.08714 2.74354 6.85126 2.51277L5.282 0.938401C5.20508 0.861478 5.09751 0.820463 4.98978 0.820463H1.64108C1.18975 0.820463 0.820463 1.18975 0.820463 1.64093V14.3589C0.820463 14.8102 1.18975 15.1794 1.64108 15.1794H16.4103C16.8615 15.1794 17.2308 14.8102 17.2308 14.3589V3.69231C17.2308 3.24099 16.8615 2.87169 16.4103 2.87169H14.7692V2.05123H16.4103C17.3128 2.05123 18.0512 2.78966 18.0512 3.69231V14.3589C18.0512 15.2614 17.3128 16 16.4103 16Z" fill="white"/>
<path d="M14.722 5.86734L11.8963 3.04177L9.07069 5.86734L8.49121 5.28786L11.8963 1.88281L15.3015 5.28786L14.722 5.86734Z" fill="white"/>
<path d="M11.4873 2.46191H12.3078V11.8978H11.4873V2.46191Z" fill="white"/>
</svg>
