<svg width="24" height="26" viewBox="0 0 24 26" fill="none" xmlns="http://www.w3.org/2000/svg">
<path d="M17.7199 11.2552V6.33476C17.7199 6.19392 17.6548 6.0638 17.5628 5.96085L12.0463 0.168015C11.9433 0.0597076 11.7969 0 11.6507 0H2.90445C1.28976 0 0 1.31674 0 2.93163V19.4702C0 21.0851 1.28976 22.3802 2.90445 22.3802H9.80832C11.1142 24.5478 13.4878 26 16.1917 26C20.2992 26 23.6535 22.6619 23.6535 18.549C23.6591 14.9563 21.0796 11.9542 17.7199 11.2552ZM12.1927 1.90211L15.8937 5.79819H13.4931C12.7778 5.79819 12.1927 5.20766 12.1927 4.49236V1.90211ZM2.90445 21.2964C1.8912 21.2964 1.08386 20.4835 1.08386 19.4702V2.93163C1.08386 1.91283 1.8912 1.08386 2.90445 1.08386H11.1088V4.49236C11.1088 5.8091 12.1764 6.88205 13.4931 6.88205H16.636V11.1142C16.4736 11.1088 16.3434 11.0925 16.2026 11.0925C14.3114 11.0925 12.5719 11.8187 11.2605 12.9568H4.37849C4.08035 12.9568 3.83656 13.2005 3.83656 13.4985C3.83656 13.7966 4.08035 14.0404 4.37849 14.0404H10.2527C9.86783 14.5824 9.54806 15.1243 9.29892 15.7204H4.37849C4.08035 15.7204 3.83656 15.9642 3.83656 16.2623C3.83656 16.5602 4.08035 16.8042 4.37849 16.8042H8.94662C8.81114 17.3462 8.74072 17.9476 8.74072 18.549C8.74072 19.5244 8.93036 20.489 9.27174 21.3019H2.90445V21.2964ZM16.1972 24.9217C12.6858 24.9217 9.82994 22.0658 9.82994 18.5544C9.82994 15.043 12.6802 12.1871 16.1972 12.1871C19.714 12.1871 22.5643 15.043 22.5643 18.5544C22.5643 22.0658 19.7087 24.9217 16.1972 24.9217Z" fill="#3F67FD"/>
<path d="M4.37787 11.326H9.8672C10.1653 11.326 10.4091 11.0821 10.4091 10.7841C10.4091 10.486 10.1653 10.2422 9.8672 10.2422H4.37787C4.07973 10.2422 3.83594 10.486 3.83594 10.7841C3.83594 11.0821 4.07973 11.326 4.37787 11.326Z" fill="#3F67FD"/>
<path d="M16.5818 14.5552C16.4788 14.4469 16.338 14.3818 16.1862 14.3818C16.0345 14.3818 15.8936 14.4469 15.7907 14.5552L12.6151 17.9637C12.4092 18.1805 12.4254 18.5273 12.6423 18.7278C12.8591 18.9337 13.2112 18.9174 13.4171 18.7008L15.6606 16.3002V22.2176C15.6606 22.5158 15.9044 22.7596 16.2025 22.7596C16.5004 22.7596 16.7444 22.5158 16.7444 22.2176V16.3002L18.9715 18.7008C19.08 18.8145 19.2208 18.8742 19.3672 18.8742C19.4971 18.8742 19.6273 18.8254 19.7356 18.7278C19.9524 18.5219 19.9686 18.1805 19.7627 17.9637L16.5818 14.5552Z" fill="#3F67FD"/>
</svg>
